<mxfile host="app.diagrams.net" modified="2022-04-16T13:15:22.540Z" agent="5.0 (Windows NT 10.0; Win64; x64) AppleWebKit/537.36 (KHTML, like Gecko) Chrome/100.0.4896.75 Safari/537.36" etag="f7bEJxuJHr-cIJXF2JPb" version="17.4.0" type="github">
  <diagram name="Page-1" id="03018318-947c-dd8e-b7a3-06fadd420f32">
    <mxGraphModel dx="1182" dy="724" grid="1" gridSize="10" guides="1" tooltips="1" connect="1" arrows="1" fold="1" page="1" pageScale="1" pageWidth="1100" pageHeight="850" background="#ffffff" math="0" shadow="0">
      <root>
        <mxCell id="0" />
        <mxCell id="1" parent="0" />
        <mxCell id="677b7b8949515195-1" value="" style="rounded=0;shadow=0;labelBackgroundColor=default;strokeWidth=1;fontFamily=Verdana;fontSize=12;align=center;comic=1;labelBorderColor=default;whiteSpace=wrap;html=1;fillColor=#eeeeee;strokeColor=#36393d;" parent="1" vertex="1">
          <mxGeometry x="20" y="20" width="1030" height="840" as="geometry" />
        </mxCell>
        <mxCell id="677b7b8949515195-2" value="" style="whiteSpace=wrap;html=1;rounded=0;shadow=0;labelBackgroundColor=none;strokeWidth=1;fontFamily=Verdana;fontSize=28;align=center;comic=1;fillColor=#eeeeee;strokeColor=#3333FF;" parent="1" vertex="1">
          <mxGeometry x="52.25" y="50" width="957.75" height="70" as="geometry" />
        </mxCell>
        <mxCell id="677b7b8949515195-9" value="" style="line;strokeWidth=1;html=1;rounded=0;shadow=0;labelBackgroundColor=none;fillColor=none;fontFamily=Verdana;fontSize=14;fontColor=#000000;align=center;comic=1;strokeColor=#3333FF;" parent="1" vertex="1">
          <mxGeometry x="10" y="450" width="1040" height="30" as="geometry" />
        </mxCell>
        <mxCell id="677b7b8949515195-26" value="" style="whiteSpace=wrap;html=1;rounded=0;shadow=0;labelBackgroundColor=none;strokeWidth=1;fillColor=none;fontFamily=Verdana;fontSize=12;align=center;comic=1;strokeColor=#3333FF;" parent="1" vertex="1">
          <mxGeometry x="30" y="148.5" width="460" height="120" as="geometry" />
        </mxCell>
        <mxCell id="S9N39x9OoabporP24U4P-4" value="" style="shape=image;verticalLabelPosition=bottom;labelBackgroundColor=default;verticalAlign=top;aspect=fixed;imageAspect=0;image=data:image/jpeg,/9j/4AAQSkZJRgABAQAAAQABAAD/4gIoSUNDX1BST0ZJTEUAAQEAAAIYAAAAAAQwAABtbnRyUkdCIFhZWiAAAAAAAAAAAAAAAABhY3NwAAAAAAAAAAAAAAAAAAAAAAAAAAAAAAAAAAAAAQAA9tYAAQAAAADTLQAAAAAAAAAAAAAAAAAAAAAAAAAAAAAAAAAAAAAAAAAAAAAAAAAAAAAAAAAAAAAAAAAAAAlkZXNjAAAA8AAAAHRyWFlaAAABZAAAABRnWFlaAAABeAAAABRiWFlaAAABjAAAABRyVFJDAAABoAAAAChnVFJDAAABoAAAAChiVFJDAAABoAAAACh3dHB0AAAByAAAABRjcHJ0AAAB3AAAADxtbHVjAAAAAAAAAAEAAAAMZW5VUwAAAFgAAAAcAHMAUgBHAEIAAAAAAAAAAAAAAAAAAAAAAAAAAAAAAAAAAAAAAAAAAAAAAAAAAAAAAAAAAAAAAAAAAAAAAAAAAAAAAAAAAAAAAAAAAAAAAAAAAAAAAAAAAFhZWiAAAAAAAABvogAAOPUAAAOQWFlaIAAAAAAAAGKZAAC3hQAAGNpYWVogAAAAAAAAJKAAAA+EAAC2z3BhcmEAAAAAAAQAAAACZmYAAPKnAAANWQAAE9AAAApbAAAAAAAAAABYWVogAAAAAAAA9tYAAQAAAADTLW1sdWMAAAAAAAAAAQAAAAxlblVTAAAAIAAAABwARwBvAG8AZwBsAGUAIABJAG4AYwAuACAAMgAwADEANv/bAEMAAwICAgICAwICAgMDAwMEBgQEBAQECAYGBQYJCAoKCQgJCQoMDwwKCw4LCQkNEQ0ODxAQERAKDBITEhATDxAQEP/bAEMBAwMDBAMECAQECBALCQsQEBAQEBAQEBAQEBAQEBAQEBAQEBAQEBAQEBAQEBAQEBAQEBAQEBAQEBAQEBAQEBAQEP/AABEIAFcBtAMBIgACEQEDEQH/xAAdAAEAAgMBAQEBAAAAAAAAAAAABQYDBAcBAggJ/8QAWBAAAAUDAQMGCAkFDAYLAAAAAAECAwQFBhEHEhYhExQVMVSSCCJBUVORk9MXUlVWYXGVstQyNVd0lCM0NkJDY3aBsbS1wjM3cnWCoRgkJSY4RGJkc4PS/8QAFgEBAQEAAAAAAAAAAAAAAAAAAAIB/8QAFxEBAQEBAAAAAAAAAAAAAAAAAAERQf/aAAwDAQACEQMRAD8A/qmAAACNq0wozKlZ8gkT6hW7ocNLPA/KQCTi0djkiXNRyrqiyolHwT9BEM3Q9M7C16huDl2rurV5WNX6BaOnmli75rtcYlzOadNMUxLMeObZLXyjyTSo9p1BbPA+swHReh6X2Fruh0PS+wtd0VPR7UaoanWguv1m1F23U4lQl0ufTFTUS+byI7ptrSTyCJKyyXWRY+vrG7fF9bmVC1IHRfPN5643Rtvl+T5vtMuucpjZPbxyWNnh+VnPDBhP9D0vsLXdDoel9ha7o3AAafQ9M7C13Q6HpnYWu6NW2bqoN401dXtyfzuI3KkQlOcktvDzDqmnU4WRH4q0KLOMHjJGZcRLANPoel9ha7odD0vsLXdG4ADSXR6epJpQwTZ+RSDwZDUgyHGZLkJ5RGtpWM+cusj9RiYFbWsyuWUnPkb+4QCxlgyyPR8o/JH0AAAAAAAAAAAAA8PqAfDrqWyyZiOdq6CUaW0qWZfFIzGGrvqNxqKlWybziW8l5MngS7LDUdsmmUElKfMAiDrTnZnvZmHTTvZnvZmJsAEKVZcM/wB7PezMbMeqtuq2DylXmPgYkRoViOhyE7IxhxhBuJUXXw44AbqFksskPoR9Kk8uwlWeshIAAAAAAAAAAAAAAAAAAAAAAAAAAAAAAAAAAAAAAAAAPD6hWLq/0P8AWQs59QrN1EZs8POQCzjn2rViVu4WKbd9jTEQ7xtZxcmlrcUZMy21EXLQn/5p5KSLPWlRIUX5I6COR6xWPq/UbytnUHRmZZ6atRYc6nSGLn51zZbEg2VbSObltbZGyRccFgwFA1P8JWDp/pJQL206pts2xIuOvPwqki4qfKKPTpqUurlpkNQkm8p7lWzSaiSeTPaPgeRq0HVSqax2fo/edZVSHJitRFQ3H6Q3IbhSOSYlpS6ymQROpSaccFkR5zwITMbRfXSj2RQqlRqtYi9QabddSuV9ErnnQyjmpfQ42g0ly/ipeIyz5S4mflsdL0s1WqNHsyTf1yUafX6ReLly1Q4z8lUVthSH0pjxOVJS9lPKo2Uq2SIs8eBZDl9l+GHdty6+R9OH5tiuUqXcE2ilS40SqFWo7bRupQ846tPM1FlpJmSFGeF8CIyPF4szVXwhLnvCJW917Of06nXLOoJJhInLrMVthx5opDx8WEo22eJ9WFpLgZj7tDTHwh7fu+DRHbms2Np3Tbim1tCoDk5FZltPOvulHfLgwpG2/wCMXVhCT4mQx2XpV4QtsXfEoqrns5jTuDcs6vEqE5ORWJTb7jzpR3i4MKRtvcS6sII+JkA8qGt2q9Xs63ysal2mV13Ld9Vt6KdWRJTT2mIbkrx1k0s3Ns24xcSPG0Z8CLgUY7r/AK5Q6HQ6W1Y1q129XbxnWpUoUKW7FgumzGW8TrDrx7SCIiSZ7ZKMySoiIjMsSdQ0R1XpFnW+djVS0zuu2rvqtwxSqy5Kqe6xMcleIs2kE5tk3JLgRY2iPiZcT2bO0T1HiSrXuO8qnba63GvKo3VXEUxT5RSKREdjpbjcok1qxtNme2ZfxuJ4LIVS7/Cd1JsnSGVcFzRrJpN1wbwdtaXIebnP0dgkIN3lDSySpKvFIkeKR+MecEXVc9BNcb41YsamXHu7Q6845cD9IqdRokh6HBYiob2yltNTEk+4WTQg2zIlZM1dRYGC4NGdUI0Go1axqlaxXE1fr920pFWVIVCUy7HNg23+SSThLJK1nhGSyRcesWiwKFr1RaXEdvGuWnUatU6+7NriGXJq4sSnqb2UswOU8YlEpCFYXhBbS/LgzDqIrC1FvTLLy4b+4Qs4rDhf955ZmXkb+4QCyNqLZIe7SfOPGzLYIe+Xq+gZd4R6R54j0B5kho9AfBqUXkyPcmYD6AeZAuPEB6PlR8DIejxReKArdWM+lIJf+5b+8QswrNW/OsD9ab+8QswDiOqzusF06tUvTnTPVhuxI7dvO1qVJ6Aj1RUlfOUtJQaXjLYIi45SflPOeGKdGvvWu+bL00tihamsW7clw1KswqlcSaFHlG8mnm6jaKKvDaDc2CUeyZbJ9XDgLTqnbVW1C1qp9q2zdEqzqlTLYenu12nkpUt9l542iiYNZN8mSyJwzUlSskWwbZ+MKtp1NjzJmhaY9KjU8ok25oLjcZTikOOsocaW9lxSl5cUhTh7SlKys8qV1mHQvB9uC/5jl8WbqNeDd01K0K+VNRV001qAclpcVl8ssteInZN0y4ZyRcR1KrfmqZ+rufdMco0P/wBY+tP9L2P8MiDq9W/NU39Xc+6YCOt0zOIj6hOCCtz96I+oToAAAAAAAAAAAAAAAAAAAAAAAAAAAAAAAAAAAAAMD0ltosqURDRcrkVB4NwvWMMZKanPdQ6Zm1HIjNPxjPOP7DEuUeOksEw2ReYkkAizr8T46fWIS4KnGkR1ElZZx5xb+QY9CjukBx2D62G+6QCt06+KVMZTyklpp8iInG1KwZH9Geshub00ztbPfISxw4h9cVk/rQQ85hB7Gx7MgETvTS+2M98g3ppfbGe+QluYQexsezIOYQexsezIBE700vtjPfIN6aX2xnvkJbmEHsbHsyDmEHsbHsyARO9NL7Yz3yDeml9sZ75CW5hB7Gx7Mg5hB7Gx7MgETvTS+2M98g3ppfa2e+QluYQexsezIOYQexsezIBCv3hRozZuPTmUkX/rIzP6i6zELTq8xOqD9RVhJOqLZIz4kkiIi/5ELoUKGXVEZL/6yH2UaOXUw2X/AAkAi267FwRE4XrG6xOaf/JURjPyDHoUd0hGVeM3DbKfHSTZoUklkkuBkZ46vrMBLEZGWSHo1oT3KtJV5yGyAAAAAAAAPFfkmPR4fEBW6sn/ALUgn5pLf3iFlEJXIS329tozJaDJSTLyGXUYxM3bGZbJFTjvNOp4KNCNpKvpLHEBUNUtBKPqfX4V0Jv++rQqkOIqAqVatZ5guSwa9sm3T2FbRJVky6us+vhiOq3gx2fULGtmyKdeN60NVqvPSIVapNXJiqLceJXLqcf2D2jcNZmrCSyfmLgOgne1CL+PI9goN96D8eR7BQCF0n0komkVIqFNpdfuCuyatNOoT6nXpxS5sl40JQRrdJKckSEJSXDqIW6rfmqb+rufdMRib1oSupcj2Chrzq4qsN8xp0d1LbnBxxZYyXmIvp84Dbt1JpiI+oTY0abG5BlKMdRDeAAAAAAAAAAAB4pRJLJj0RdWmKjt4T+UfAvrAbTk5pvrWQxdLRi/lC9YMUeMlBHKTyzp8VGo+GfoLzD76IpnYmvUAx9LRvjl6w6WjfHL1jJ0RTOxNeoOiKZ2Jr1AMfS0b45esOlo3xy9YydEUzsTXqDoimdia9QDH0tG+OXrDpaN8cvWMnRFM7E16g6IpnYmvUAx9LRvjl6w6WjfHL1jJ0RTOxNeoOiKZ2Jr1APjpaMf8oXrGVuc051LIfPRFM7E16h8P0eMpBnFTyLpcUmk+GfpLzAN0lEZZIBDw6ia2CNR4UR4P6wAYrbUap1Sz5Db/wAwnxX7Z/f1S+tr/MJqY2+9EfaiyDYeW2pLbpJIzbUZcFYMjI8Hx4lgBmEdcdRfo9vVSrRkoU9ChPyG0uEZpNSEGoiPBkeMl5xwyw9YL4uPoVqTU0OyLetCpVC6W+btp5xUmXzjNErCf3MjXHkrwjZLq4YLAqdp3LrfFiW7M1C1aauyk6j2fVKgimlb0aB0Y4iGh9Oy60e07wWaPGx5+sB3awdToFxW7YyrgksRrhvGhoqzMSOw7yS9lptb+wZ7RJSk3U4JSsmR8M4MXofj+g2zqFVbv8HiVbepvQUTcrbKL0KxKw201FVJRtrMj/d0KQjPW3sZTk1GM16a6Vy2/CBhWpSfCaiVZx+54dMkWKizUtoYjvLShaTqOD2lISraMyURmrhguKQH66AflOtXprzKqkrUqnavNU62IuoDNrFazduxXNuMU9EVSjmLy4RqIzUeC4ZwRl5IlvWHwgql4QD9Oor97zLXjXd0O5T49iR3aKiEh0mnFrqxL5ZKkp2ln4mCUWMkQD9hAPydcOpnhJsIuO6qFddudE0e/StylU6TTyNycTsptgmpLqSLkmUE4RkbZG6o85VwIj6zo5XNRzvG9rK1IuiJXplFOnSmn4kBERlnnLKlrYbSWVKbSafFUs1LPJ5PyEFp1eu+pWBphc960ZiM9OotMfmx25KVKaUtCckSySpJmX1GR/SLPAfXKgxpThES3mkOKJPURmRGeB+UvCNl6t3xB1djUPU5m3rUsinNRZdERQmJS6uTkRL7hqkuHts5JewWwXAiz1jd1IuvXFUy+6/YurTVs0XTSiwJaqMdvRpvSilRDkL2n3PHazjY8UjwXEuID9M16uUu2KJPuOuSubU6mRnJct7YUvk2m0mpatlJGo8ERngiM/MQ2IM2NUoUeowneUjymkPsr2TLaQoiNJ4PiWSMuscv8IRFbuDwc7tkUStlRpL1vOy3HSiokbTJNbbrOyvBFto2kbXWnayXEhXtOqlqNadX0nsW5L+3harFBqkya/0UxE5Um0R1RkbKCPZ5JLhpylRbfWos9QdDua9arRdTLKsyLHiKhXG1U1ynHEKN1Bx2kLRyZkoiLJqPOSPh1YF1H5HkXDq5flx6bzrZuKjNXIdbvKCidVYRrZZiMvqaLDTOxtrS2hJJyeDMsqM+IlId9a33RZ1lWZTtUWKTdNYuyuUObc6aDGf5RqAckyMoisNp2+SSXA8ljrPjkP1IIu5jxRJBl50ffSKRoFcF4Vq0qpT76uFFerFvV+oUR6qphNxOeky4Wy4bLfiNnhRFgvN9Iu1z/mOR9bf30gPujmZx0fUQkhzKFq1SIa3ofQVYeOK85HUttLGypTazQoy2nSPGUn1kQ3vhjpHzbrndje+AX8BQPhjpHzbrndje+D4Y6R82653Y3vgF/AUD4Y6R82653Y3vg+GOkfNuud2N74BfwFA+GOkfNuud2N74PhjpHzbrndje+AXxbaVlgyGk/SY7x5U2XqFP+GOkZ/g3W8fVG98MsfVFiqyW4dNos2O4ZmalTEtbGyST4FsOGe1nHXwxnjnACxnQIno0+oOgInxE+oRm9dQ9DH7p/wD6HxIu6pMx3XUsRjNtClFlKsGZF9YCXKgxCPg2XqG1HpzLH5KCIR+8VX+Ylc9tB/EBvFV/mJXfbQfxACcSkklgh6K+Vw1jGydjV0+HWb0HJ+qQPreCr/MSue2g/iAE8Agd4Kv8xK57aD+IDeCr/MSue2g/iAE8Agd4Kv8AMSue2g/iA3gq/wAxK57aD+IATwCB3gq/zErntoP4gN4Kv8xK57aD+IATp9QrdfcNMiOX8+j7xDOdwVfH8BK57aD+IEE9WumZKkqp0qC7Cntx3WZJtmolGltwjI21rSZGlxPl84C9jk2rGr9/2beNHsfTbSDfuqVKnSKo+3vAxS+bMNONt5y8g0rypwuBGRljqMdZHG9WLL1ye1Ho+oOi7th8vEo0ikSkXSubjZcebdy2mMX82WTUf9XlAe3brRqbbNuWghjQ1c6+LrfkNbsFcsZtMVLKFLcUcw0m0vxSSZERFnax1lxntGdU61qZBrrF1WK5aNftupnTKjS1VJueTazZbdQon2yJKsodSfAuB8MjnFuXtW9RK9oVdtyRIMaqy3bgbmNwdvm5OtMLaUbe2ZqJJmjJEZmfHrFq0P8A9Y+tP9L2P8MiAOxCpXpqDDs6vWhbz0PnEi7qsqls4d2OSJMd15TmMHtEXJEnHD8suPkPdZviiv3Q5aCIVwFObztOrt6eiEeE7XCYpkoyuHmcPjw6+AoetUWMvUDR2WuO0p9q7XUNumgjWhKqdKNREfWRHspyXlwXmAVWf4T1+xatLqUbQWRJsGFcHQDtz7yxULJRSyircKEaOVMidPBFniXHJCW1D161Nt+8bgtrTjQdd6QrWisP1aoqueNTSYU60bpIJp1BqWRILOU+XJY8+lrE/R3olDo9PbpcLTOVX0KuCqUFDT7zVTRNSpDLjaME0lckiJ10icWSjNKkoyay3qf/AA117/UoH+GrAdGod+xLh0yh6lwIThR5tFTWG4zi8KJJs8pyZqwfHyZx9OBCztWXImhzWs7ducqSqIxW3KbzvGw2tCVrTyuwedhKlHnY47PUWeEDpX/4ULe/oQ3/AHQVbRCr1LVnQ5NtQY0PdFizWKAmUpClPzaicUkPm2e1sky1kmzykzU4S8GRJ8YOvyL7QjUCi2LFpvLlVqPKrDksnsFHbaWyhBbGye1tm8fHaLGwfXnhaxwfwf6o7etyN3fKLacgWNQaYoz/AIshzlXn0/Xwaz/UO8AKZHdPaf4n/p3PvAPiP+VI/WHPvAAlraIynVLPnb/zCwCsFJVRKk5JcbUqO+RJc2SyZY6j/wCZ+sShXLQcZOqMJ+hR4P1GAo9maH0Wz67qHWUVJySm/wCWb7jPJbHMmjbUS2kHtHkjcceczhPFzq8p0uxvBovegTIRXnre7dNMoNEmUS34J25HhdHofaSztqcbWan9ltJJwrr68kY7XvRb3yvG74b0W98rxu+A5nL0Jr7EXTJVq6lLotR08iIpz0oqQ1ITU4ZoZQ80bbi8MmsmU+ORqNOTxnrFfk+DBdMq7E1Ret1TK2411JumJbiaSylhDpyecOIcdJZLdys1bKjxs5LxTxgds3ot75Xjd8N6Le+WI3fAfi/UOdSYWsjemFma8TpKpt+QKrJ0+etFaVJkKmNvvupqK2yPk04U6REeyaSwRmR5HcJPg7Xq/fS6knWl9uyHbkRc67VK345qOUl1L2Oemrldk3kkrq6vF+kdg3ot75Yjd8N6Le+WI3fAc9laF85t6o0HenZ6QvVu8OV5jnY2JTT/ADfZ5TjnktnbyXXnZ4YO2UGxug79uq9+lOW3mbgI5ryGzzfmzakZ29o9va2s9RYx5RLb0W98rxu+G9FvfLEbvgOMareDde981y5pVm62u2nRr0YZar9JVbzFQTLUhomtpLq1pW1ltKSMkn1lnIah+DZet2Vytv2trY7bNCuuBFgXDSSt2PM58llo2TNL7iyWztNns+L1Hx4js+9FvfK8bvhvRb3yvG74DVue0YNzWPVLFdecYiVOmO0s3EcVNtraNvaLPWZEeRyed4P2p8q3rPTF8IF+JdtpJlxUXA3bEUykQXySXIc2NfJoNKW2yJzJmeyeeJjsW89vfK8bvhvRb3yxG74Dhv8A0Yr/AKXbtpxLP13XR7htiZVpa645bTEtUs57hrcI2HHeTQZZMs8c9ZEnqEpP8HG4mbHtej2lq1Jo12W3VJdYO5XKKxKOVJlk7zpRxVKJtJLN5WCyeyRFjPWOvb0W98sRu+G9FvfK8bvgK7pFp3P00tV2jVq6V3JV59Qk1SpVVUNETnUl9e0pRMoM0tlgklgjxwz5RYrmLNEkF9KPvpHpXLQD6qtHP/jEbVKs1WNmn07acaNRKdc2TIjweSIs/T/YA4iyWJ9T/wB5zf7y4NsdTa0us2Q67JfpknlZDq3nTRUJKCNa1GpR7KXCIsmZnwLHEZ/gpsf5Ml/acr3gDkoDrXwU2P8AJkv7Tle8D4KbH+TJf2nK94A5KA618FNj/Jkv7Tle8D4KbH+TJf2nK94A5KA618FNj/Jkv7Tle8D4KbH+TJf2nK94A5KJO2vzs3/sq/sMdH+Cmx/kyX9pyveDC5pxSKcpqVbkVbMlK8LORPkOJNs0mRkRLUsiPOzxx5D4gNAYZv7zf/8AhX/YYmd2K78WB+0L92Mb9qVx5lxn/qBbaTTnl18Ml/sALoAgtzaT22ufbs73wbm0nttc+3Z3vgE6AgtzaT22ufbs73wbm0nttc+3Z3vgE6AgtzaT22ufbs73wbm0nttc+3Z3vgE6AgtzaT22ufbs73wbm0nttc+3Z3vgE6AgtzaT22ufbs73wbm0nttc+3Z3vgE4fUOfYM6/Xf8AfbH9ziiyHZlJP/ztc+3Z3vhHS7dh0hh1VMRI2nXikuLfkuPrW4SUpIzW4pSvyUJLrxggFvHJ9VLf8II7wpt1aJ1+0SYTTXIE+l3S7OKIazdJaH20RuBuYyk1K6k8Cznh0mBWoE5olpkIbc/jtLURKSfl4H1/WNrncXtLXfIB+e1aJ6z21YmnJ2LV7KdvOzZE9+UVWKX0W9zwnOVJs2i5U9k1kSc4yXE/MLxoXYF/2e1dVf1Pm2+9cd21npSU3QeX5kySY7TKEoN8iczhrJ58p9Y6XzuL2lrvkHO4namu+QDMKTqDZNVuu47Eq9OkRG2bYryqpMS8tRKW0cR9nDZEkyNW06k8GZFgj4+Q7hzuL2lrvkHO4vaWu+QD801HQ/wiHHJ+n9PrOnRaeVC6TrypDyZ3TSWlTymKQREXIbRKI0l5DLykYntQdOPCKj3vd9X0gnacqo16xIzU5FynOKUy42wpk+S5uWxsmk85Vk8+TBce8c7i9pa75BzuL2lrvkAqFsWDKtrRyn6aNzWn5UC3k0gpB5S2twmOT2uozJO1x6s4FZ0S0luXSJMaktzqa7RZVFhlUYrTrn7jWGWkNOvRyNBEbTyUkas7JkpBKwe2rHVedxe0td8g53F7S13yAc40L0pqWlNOuaHVKhGlqrFwy6jENhSjJmErZKOyeUpwpKE4MiyX0mOmjFzuL2lrvkNSo1yn06Ot5T6HHEpM0tIURqUfm+j6wFTYkspXII18SkOF1H8YwGKDFdWybrpeO4o1q+s+IAnV3kwmnywtJHkRTttRHDMzbSAApj3Vh+jT6g3Vh+jSAAG6sP0aQ3Vh+jSAAG6sP0SfUG6sP0SfUAAG6sP0aQ3Vh+iT6gAA3Vh+jSG6sP0aQAA3Vh+jSG6sP0aQAA3Vh+iT6g3Vh+jSAAPpFrw0nnk0+oSMSlsRsbCSIAAb6UkksEPQAAAAAAAAAAABF3BXItuUtdXltvPIJxmO0yykjcefecS0y0naMkkpbjiEEajSkjVlSkpIzKE33uX9EN2/tVJ/GgABvvcv6Ibt/aqT+NDfe5f0Q3b+1Un8aAAG+9y/ohu39qpP40N97l/RDdv7VSfxoAAm7frkW46WirxG3mUG49HdZeSROMvsuKaeaVsmaTUhxtaDNJqSZpylSkmRnKAAAAAAAAAAAAAMT7KXUmRkAAIKbbUWSozUghoHZcM/5NIAA83Lh+iSG5cL0SQAA3Lh+iSG5cP0SQAA3LheiSG5cP0SQAA3Lh+iSG5cP0SQAB6Vlwy/k0jbj21FjNLUlBcEn/YAAMrcdCEEkiLgAACH/9k=;" parent="1" vertex="1">
          <mxGeometry x="47" y="160" width="436" height="87" as="geometry" />
        </mxCell>
        <mxCell id="S9N39x9OoabporP24U4P-23" value="" style="html=1;whiteSpace=wrap;container=1;recursiveResize=0;collapsible=0;gradientColor=#ffffff;strokeColor=#3333FF;fontStyle=1;labelBackgroundColor=default;labelBorderColor=default;" parent="1" vertex="1">
          <mxGeometry x="87" y="370" width="290" height="80" as="geometry" />
        </mxCell>
        <mxCell id="w7AhATVy-vMS33P31Dev-9" value="" style="aspect=fixed;perimeter=ellipsePerimeter;html=1;align=center;shadow=0;dashed=0;spacingTop=3;image;image=img/lib/active_directory/input_output_filter.svg;labelBackgroundColor=none;fontSize=15;fontColor=#3333FF;" vertex="1" parent="S9N39x9OoabporP24U4P-23">
          <mxGeometry x="30" y="25" width="26.8" height="40" as="geometry" />
        </mxCell>
        <mxCell id="w7AhATVy-vMS33P31Dev-11" value="File Input" style="fillColor=none;strokeColor=none;align=left;fontSize=14;labelBackgroundColor=none;fontColor=#3333FF;" vertex="1" parent="S9N39x9OoabporP24U4P-23">
          <mxGeometry x="100" y="-10" width="80" height="50" as="geometry" />
        </mxCell>
        <mxCell id="w7AhATVy-vMS33P31Dev-12" value="INSIRA &#xa;O ARQUIVO " style="fillColor=#FEFEFE;strokeColor=#AAAAAA;fontSize=14;gradientColor=#F0F0F0;labelBackgroundColor=none;fontColor=#3333FF;" vertex="1" parent="S9N39x9OoabporP24U4P-23">
          <mxGeometry x="80" y="35" width="90" height="30" as="geometry" />
        </mxCell>
        <mxCell id="w7AhATVy-vMS33P31Dev-13" value="No file chosen" style="fillColor=none;strokeColor=none;align=left;fontSize=14;spacing=5;labelBackgroundColor=none;fontColor=#3333FF;" vertex="1" parent="S9N39x9OoabporP24U4P-23">
          <mxGeometry x="180" y="35" width="100" height="30" as="geometry" />
        </mxCell>
        <mxCell id="677b7b8949515195-10" value="&lt;font color=&quot;#3333ff&quot;&gt;INSIRA OS DADOS DE KERMA NO AR EM TERMOS DA ESPESSURA&amp;nbsp; NO FORMATO &lt;b&gt;.CSV&lt;/b&gt;&amp;nbsp;&amp;nbsp;&lt;/font&gt;" style="whiteSpace=wrap;html=1;rounded=0;shadow=0;labelBackgroundColor=none;strokeWidth=1;fillColor=none;fontFamily=Verdana;fontSize=12;align=center;comic=1;strokeColor=#3333FF;" parent="1" vertex="1">
          <mxGeometry x="20" y="270" width="470" height="95" as="geometry" />
        </mxCell>
        <mxCell id="S9N39x9OoabporP24U4P-33" value="" style="shape=singleArrow;whiteSpace=wrap;html=1;" parent="1" vertex="1">
          <mxGeometry x="460" y="532.86" width="95" height="50" as="geometry" />
        </mxCell>
        <mxCell id="S9N39x9OoabporP24U4P-39" value="" style="shape=image;verticalLabelPosition=bottom;labelBackgroundColor=default;verticalAlign=top;aspect=fixed;imageAspect=0;image=data:image/png,iVBORw0KGgoAAAANSUhEUgAAAfIAAAF1CAYAAAATJGiwAAAAAXNSR0IArs4c6QAAAARnQU1BAACxjwv8YQUAAAAJcEhZcwAADsMAAA7DAcdvqGQAAHCqSURBVHhe7Z0HmBRV9rfvju6uLoqKgiAgGcmSJUvOCCZQERBREVBRREUlmTCBAQQRUcmSVIKSFASJkiRnECSYs7iKfjsf77Gr/007AzPQM1PV83ufp56eqa7urnh/95x77jn/SDyKE0IIIUQgSQi9CiGEECKASMiFEEKIACMhF0IIIQKMhFwIIYQIMBJyIYQQIsBIyIUQQogAIyEXQgghAozmkQuRgfz+++9u06ZN7owzznBFihRx//rXv0LvpB9Hjhxxe/bscb/++qsrWbKk+/e//x16J3Pz6aefuu+//95dfPHF7oILLgitTZ6NGze6hIQElydPHnfOOeeE1gqR9kjIRYaAeKxfv979+eefoTV/cdZZZ7ncuXO7bNmyhdakPzTeLFmyZHEXXnhhaG3a8PXXX7v777/fXXTRRa5Hjx7u/PPPD72Tcnbv3u2++OILE5F//OMfJsQID4LC/yfip59+cu+884778ssvXefOnWMqQv/v//0/t2vXLtu3vHnzWocFOG7OMb91MueYZov93rZtm/vPf/7jChQoYPcO/PHHH3YsBw4csPuoaNGitj61vPLKK27NmjXuxhtvdLVq1QqtTR6u4+mnn+6uu+46V6ZMmdBaIdIeudZFhvDdd9+5a6+91hrJ2267zd1+++22PPPMM+6TTz4JbZUxLF++3L344ovu3XffDa3xNwMHDnStWrVyt956q+vatau799573bBhw9yPP/5ogncismbN6jp06GBCFGtLkg7bSy+95B555BGz+hH23377zU2bNs0NGDDAffTRR6EtUwcdwHXr1tlxc99s3rw5fKxfffWVe/31112LFi3sN4SIdyTkIsPAShs0aJBbsWKFWecsY8eOdfXq1bNGmcb68OHD7ueff7YF16/XWP/3v/8NL7/88otth2hEgmXGZ/is936ksCEq3vssCAyfYWFb/mc9v8Hn2BZXOK9Yg/zNd/DKPnjbsi45+B6+m+1Z+I1oPLGL3OZ///tf6N2kueGGG9yHH37oFi9e7O6++243a9Ys9/bbb4f3hd/0zmX0d7JPHIN3nMDnvHOb1D54x+B9H59Pah+xwPv06WOW88KFC90333xjVi6dpfz585vYngrnnnuu27t3r9u/f3/4XO7cudOEHY9EJByTd72T2mfe984Rr9658/CuXeQ20R6lSPh85HXkfEafw+hr4p1/IVKDhFz4Ehq29957zzVq1MjGjhm7vfnmm93nn39u7+MC5v9u3bq5cuXKmfi/+uqrxzSUfL5169bm5qxbt669jzsXaFQ//vhjd80117gSJUrY9/fq1cssxXHjxrlRo0bZ/6VKlbLfwMq7+uqr3WOPPWaeBLYfPXq0jW8/++yzrlq1aq5s2bLulltucRs2bLDfSAq+Z8SIEbY9+/3ggw+aoEQ24HRoevbs6SpWrOgqVarkHnjgAROrlMBwAOerWLFibsuWLeHzgZu4SZMmrnjx4vadvXv3djt27LD3OCd4Qu644w737bff2jq8It27d7d9rFKliuvXr5+5qoH9ffnll12NGjXstypUqGAdMsQ0Glz72bNnNy/BlClTzAIfP368CTzn3nO1nyz//Oc/XfXq1W14Yd++fXa8uPJxrUe7wzmv3DOXXnqpnf/IfUZEuR/oWBQqVMhdeeWVZvHTqfPgO9944w1Xp04du/5su3TpUhPkaLieW7duNS8H55B7g/N76NAhE3g+w3dxf19yySW2Ddfcuz+FSA0ScuFLEMgFCxZYY4/19sEHH7iOHTuaGxhoCBFMRHjy5MmuU6dO5gpHvGnMsU4Rr6uuusrNnDnTRIntJ0yYYA0p33/fffeZGM2ZM8fNnTvXRJ8GHqFmnBNLEgv36aeftoYZa46x5Jtuusm2b9q0qXvzzTfd9u3b3eOPP24ChbAhWj/88MPfrCt+d/r06W7RokXunnvusf0uX768mzdvXtj6w/08ZMgQszTHjBljgsmY9xNPPHGMqCQHFh4WKfsUOUaO9cs+zp8/39zNjFEPHz7cvpP99LwQ/I3YPP/88zbmjIsakcdqfPLJJ60DxPfT0XnqqafckiVL3KRJk1zz5s3DY9TRsA9XXHGFCRbfhdBefvnl9n8sqF+/vgk5nR0WrP58+fKF4w04JoYZuAf4Te4BzidCi5hyzujUIOxcD8+rgfATewAc/9SpU+380anhnmFYqEuXLtaB8K6fB+eIjgsdNzqGEydOtH3gXqJDwHmjo9W+fXu7H/judu3aZUiwowg+EnKRYSC4jJ1i2TRo0MCWRx991Bo4hIXGE/E8++yzXeHChc3yIrDJA8sKQcBqRoB5nT17tn0vjSgWLUKNdYo1mitXLossRkiwOBFIOge8T0AUVhOBVwgSHQaEgIhlLEpgKIDvu+yyy0wQaOSxYLH4sdI8zwDCQUMd3bgjkPx2zpw5XcuWLW1/GzZsaL/hCS4dEI4Xa5L94bdY+C3EOTnoYNBp4fsQbD6LB4HgK6hZs6ZZ4nQ0ED7exxr1hCoSOk6nnXaanW8+w75UrVrVOhm4yHEnc9yIOkF1dKY4H8cbX8dTwPEyJFGwYEH7G2s6FnD+ueYcz7Jly8ybw35zDMC9xPXgumABc524XuwDosq9QIQ6x4enh3PEMeNp8DqOHPfBgwfts14nhPPIPbJq1Sr7zUjoGHC9uR6ca36Lsfz333/fzh2dJm94hk4bFj7HceaZZ4a+QYiUIyEXGQbCiIjjcsRCZcGyI4KbxhR3OJYWlhQWEpYS4uHBdiwIAtHJREXTGNNgY23RaOIex+rBPY5ljuuSBp8GnO0Rdxp8FjoJnvAlBfuL4NO4sz3fwfZ8B+JLxyBHjhy2sN+ISyQE+NFw0zFgf9lv/sZ65LuB/V+9erV77rnnzPLH04BVjgWNMCQHAoN1SMAbwsFvRQor3gisYb4PscKKxkJku2g4P3yWDgeubzo2/I21yDHT8SA4jk4T55XO19q1a4/rMcAyxQ3NOcdiplMSfX4ieeihh1ybNm1swdMRLZSRcN3o1OH6JzaADhQi7MHvcF7ppHFtuE4cE9eNDhQWNeLKejoZXAve5286IMD+08Gkw0RwJtYznhc+Sycg2r3OfYa7ng4o38u5w9rHU8M5p/NDR9MbRmGog/tbiJNBQi4yFBo3rCTc1Cz8j4WCwGHdXn/99WbVICSDBw82l6UnGLx6f9N48zeNJiBAjAdjefF5FjoMCB2NOSIa2SmIxLOOkwKLyXufxtn7XQ9EA7FOauzX6yREbx8Z5MR34hLHAvb2GxcuY63Hc0XjOsejwbAAwxF0NBhmYP9wNyOGHC/j3XwnFiDHEbkvHuwDVndkIBffw/8cF9eHTgbjyFwjxInfYrgiKTi2sWPH2j7RqeJaEuCIMCYHx9+4cWNb6DydyHrHe4CQI6pMX4ye9819wXmO7Dxw7Owb73Ft+J/j9OA6ev/zPp0vz4vC0qxZM9e/f3/7O3pYgWOlQ8B3ePD7nHPOL50I7nc6KrVr17b9ID4DYRcitUjIhS/x3Oo06Ig5gkG0M5apJzC4O7G8GeP87LPPLFIZy5QGFBc4ootbms8jhogClhAWMNYWn0FQaGyxqLA2ETsadhp8vtcTWI9IkUc8+S2sS6xYLFzEie/BKqYxjwSLEBFEcNh3vp/9xw3rCQz77819xlWO5ccUK1zFNP4nAgsSFy1DDYxvI7L8HvvFEALCgZv9vPPO+9uxeSDyWI3sG6+4lPk8x8MxY71y3HhMOLes41x6gYiRIIR4GIgDoKOBeCGAnCvW4V5OCjw1DHuwcOxeBy056OTQSWEsnnsm8twjwlwPrgv3CL/NOeG8sx33BOeWzgJDG9xfvI+osi1wz7DQQeA46JAwU4COIt4jxDkSPEV4Cri/+A7uZ4Sa+45zj1eCz3gxGXQQOIcsQqSW0472KPuH/hYi3cBVOnLkSGtIabyIEEaocUnToNLwEVDGOtzCiCUNLGPLCCIuTtydbEuDzDglwti2bdtwQhkaYkSIz/L9fA+CiaVOI4qlynu88j7jxVjrWJ1ewBguUoSL9UznotEvXbp02OVMg4zblgWLlIXfR+D4jUjh5zPsI9sikrx6Y/YIEVYlAoC7ln3iXLDP7BvHirhHCwZgDXMeGddFyNmGTgxBVrh22XcEjN9GoPhtvhcLlA4SwkLENqKPdwSLmd9mP9hHrgEdFVzBjA+zb5x/9p2F889+V65c+ZjOBueac0dQHNeMAEK2Y3/YD/YJFz5R4qmF72afcO/T4cFlj8sfFzuv3D9cCzoieA44RjpPfIZj4n7h2nkxANxH7CvngQ4Jx8X+cS7pGHDd6VhyrTgvdGw4L/yGl8mN4Ew6OIgy+8M+MP7OfcW9yNACnRg6l5xDXOkrV6603+J8I/xcD86/EKlBQi4yBEQZAcciY+zXs0YQeBp7Gl4EgoaShhOLGQsIixVBJMoX0aDRpoGmwcXao1GmMUUssJ5wtSJcCDqWGcJGFjDGtBFGGlDep7GlAeV9fh9rlc/weUQSlz8WHdYun6fh5/sQbcSa7+B93mP8GOGKFHHgf/YLkaWTwG/S4DOei5ghFnRA+E6sOISEBh8vAeuwlPnNaBAe9pkOBpYr+4socM44L1h9nDO+i3NJgBbHiYXJ+USEEHG8BewLr4gT+8B+ImCIOIJJR4EOAULI9UGQOSaCCTk3kfuH2PIdRGUzpMExct68TpDnWfHc/KmF88L9wzVnn9k3vpd94Nh5n3gGOhicB663Z4njhcGljXXN8fNZ7iWuN+eda4TIY0Gzf9xr3B9sx/ucFzpX3EecQ34HbxHXHQud88fwEJ0lhJr3OLd0ZrjGnBfuGToEdC74Hlz0XKuTORcic6MUrSKQ0CDSYBIEdzJpTYUQIl7QGLkQQggRYCTkIpDgOsZFKzekECKzI9e6CCSMPSLijAdLzIUQmRkJuRBCCBFg5FoXQgghAkxgLHIqV5FYgrFRIYQQwu8wPZJps+QHSEsCI+TkIibBApmUhBBCCL9DUiaKF5EgKi0JjJBT0YmkF9QTFkIIIfwOpZLJ5Ef9g7REY+RCCCFEgJGQCyGEEAFGrnUhRBiaA/KUR5bzFEIcH/JZkM8/OqdFernWJeRCiDDUzKZiGEVFAtI0CJFh8IxQpIliRRTDIdtkJBLyKCTkQqQ9VOKiUaKaGBaGEOL44MGieiCdX6oZRqJgNyFEukNjRClQibgQKYNnhWcGQc8oJORCiGNQ7nohUgfPTEY6t2Mm5K+99ppr06aNa9mypXvrrbdCa4+FAx0xYoRr166du/baa9348ePdt99+G3pXCCGOhSG1xo0bW0INlm7durl33nkn9G7a8/HHH7stW7a4X3/9NbTm5CCZVefOnS07JXEIp8ratWvtXPz444+hNWnDF1984a666irXp08ft3PnTlvH/k+ePNna+tGjR9u6lPL111+72rVrW8az47Ft2zZLpHIycM1at27t3nzzzWN+57///a9btmyZ6c91113nbr/9dvfVV1+F3nVu1KhRbvjw4e7LL780rdq4caNr3ry5mzt3rvvzzz9tm0cffdRNmzbNff/99/a/X4iZkDM20KBBAxvs52JFQxQsNx8nuVmzZu7KK690mzZtcsuXLw9tIYQQx3Lw4EFXqFAh17VrV1s6dOjgKlSoEHo37fnoo4/c+vXr3eHDh0NrjuV///tf6K/jgxDs2LHDBD2lnzkev/zyi31fWs8uwF2MmC9YsMAdOHDA1n322Wd2ThA83ksNfB+fPdF+c743b94c+i91zJ8/3x06dMj0hn31YP8//PBDV6pUKbuX0KHIlN+IN8ezb98+67jt3bvX7j80iv1l2GnNmjV2DH5LFX5a/6OE/j4lCI4hGG3r1q3uggsucBUrVgy98xeUnZwwYYI7++yzXatWrexkLl682G7wMmXKuH/+85+hLZOGB4rPlitXLrRGiPSBB5yH+NNPP3W7du2ygDAsodNPP93Gx4hajReIWM+aNesJn8f0YtasWa5gwYJmjefLl8/lzp3bnXPOOdaYTp8+3SxDRGbPnj3uvPPOc7t37zYLauXKlW7OnDlmgbE+e/bsdh0/+OAD+xzb0GAztkm0MZ5BtseKW7hwoTXoiO6kSZPcunXr3Pbt262tIqgJK5T3Z8+ebdOOaOwnTpxo/3N/8J20gZFgxfJdl19+ucuTJ0/4/CJYS5cutbYRkUHkLrzwQttnvovPcAyI0yeffGL3XK5cuUygaBPxbJ555pnmEeX3OT4ElvaY68j+LlmyxI0dO9aOC49A2bJl7VxwDmbMmOHef/99OwY+w7mNhPuc7XAdlyxZ0gw2zseqVausvWc/q1Wr5r755hv3+uuv2zlcsWKFBUyef/75dp0w3saMGWPXhN+ZN2+e6969u+0367Bwuc54Przj+/zzz93bb7/t7rjjjvC+Tp061T6LFe0dXzQ8py+++KKrVauWbcd1v+SSS+w9hJxzkT9/fjMkuZcQZG8oCSub88ozzee4FvzNPYVm8dxzzmvUqOGKFi1qn/Hg3uB+4V6KhHPL9S5RokRoTdoQsxaIi8YNzI2dFPRo6GEVK1bMZcmSxW4YLgQ3eHJuFk4k7o6XXnrJbmI6A0KkFzQKNKY07o888oi51QYMGOCefPJJc/nSBx46dKh1SBFAEXtoN2h8Bw8ebAuCgNsVgUGcEJKLL77YXhEBrChEj20QRNoXhvMQFASINgWvIY0r1xYRRTSwtGh0ERG+D6OB9gyxoXGm0eeVxvy9996z30HIgDaKhpz/+V32FzFNKYgJn82ZM6e5fxF1QIi49/guhIXf5l7zLONIaEvZRxbEmvaSTgLHzP7S3iLCHAMdT6xMXOUcH8fM35w3jiMa2vRLL73UPK14AdgfvAoFChSw97Fe2U/2i/3kfzpXdH4Q50WLFtn5Zx/oDHvQkaKTwjVm3/h+rkfkuUPEOacIPfuRI0cOOz4ENXqIgm3x8iK+uO85r1xbT1/oXHDs3r7xfmQnnI4i/3Nt6QDxWToE3Gu0BbjaOb/ca34j3UwJTjI9Fk6eJ/benDtOUlJ47gwW/uY7hEhruM9olGbOnGm9+5dfftksHR5oGiMaQ+5HGkmKIrzwwgvujTfeMCslunEJMjTaNKBYQrFePOs1JSAuXjuAIHDu6dRjKSFCVatWNUuXv4E2BuHBDc8YJ1YfIoFVhzHBd9Co436lcWbdhg0bTIRuueUW16lTJ6tWhdcQgeH78QhUqVLFGnoMEdz7jMPyPTT8TZo0sc/yu9w7KT02Oh+IMPcVVjouczwGHghm9erVXfv27c3ypcOI1zMajh1Rpk1FpDgmhJ+/Od6OHTva1F3Ghtlnzr/nZUD42Gdc0bTRSVG5cmU7h3Qk6GxwXvg9QLh5Dho2bGi/Q6wUgs1+Iqx4L9q2bWu/jffVg+uCKPOb7BPPF/vN+fTg+PlNzhNj8lwbvB2c3+ghXO4LPALly5c3US5SpIgJMt/HPuM14L6hM0CHEOub4+ceZxs6UpwLOlB8N0KOF4JziyeBzhEdwEwt5LgvuPA0dN4YETcYcPKSggtCgMi9995rrvrkthMiVvCgY0UQiDls2DCzGHCjdenSxfXt2zdskWOh9+zZ0xovGl8sEixGXH/xYp3TcOFGxiMW64WGFPE8EXT6sa6Yj8uCWNK4In5NmzY1oUCgsfo8Sw5Bxn1Ke0GjjxuWxpmOCQ06IoNgsB63K5YrIhI5xEdbFWmtRcJvsw8IB2KAqNG481msVF5TGsTLfmGFel4ExCNy3BlLHeHxvAh4CSIFjLaU4yYA0AvMQxhZEB86P4gaHQXaYDo5vHIOEDmsYn6X90uXLh1um6PxrFX2lfsd97yHdx74PPvJOWUd55TfoGNcuHDhcAfLg31AD+hEcB251jxrbBcJIosoc965LpwThD3yHPMbfBdeFW84AeHmfNCh4G+uOecPdz3/06HEQzNlyhTbFzpoXEfOGUM16BO/xX3BvUqnI9MLOTcBF4MTRg+OhQvNTY8bS4iMBhHHQsMCx73JQ3/PPfe45557zqwZOpM8yPTQGfO64oorXL9+/Uzc69evbw3FE088YRYVjW3QPUi4prFKiUuJ9YIQIrgnC4JBJDVWGgLA+CwWJSDWuFMRE/6mYUYcaICxbumAPfXUU7Zg6TIGj0XINfOEDEuN6+eJeaTAIYR0EngPcUE0PQOFNo1Xz1o9EdwztIl4FOgcYvlHurfpZNBWciwIKPdopNCxLfcsYnzbbbfZ/YjngHaV88LCueAcAJ8H9pt7ls4R54HOKeeCIdKk4Hu45/lezhVtuYd3HhBH9oexZtaxHQvnC3HltyM7IV7ngU4yv89+EIlfvHjx0BZ/wXfznQgr3885iT7HrEd8EXc8DXjTEHAsd84vnR2uDcdHx+v++++3zh/POv9jjQPCzXfjbWMd+0/ng6EIvp91ftSrmAk5PUt6Tlgj/I1bh5PPwgmkB8WNQw+Im5eeHSefMQd6QkJkJDSUNAADBw40q7pmzZo2Dn7jjTdag5McNGy4WXv16uUeeughu88ZO6cjECkMQQRLGLF8/vnnY7707t3bzvGJQExpnHGjs9DGcF4RT8SLRpX9pLH3RAqrFm8C15P2BlFh3LtOnTrW9tBIMyaMlUXjjGWOBU+QFhYcv0Pjj3DQ8PNbrEOoIjtniBsdHdo8Psf+0JlA5L3x42g8tzveAc/lyz2EWGOVMvYbCcfCPiNKXpxQpIgCQkkbynlB1DluxJuOEgvWMvvF7/I9tLuce/7GymQ954LX40GQF0LL7KRIEUXsOLd4RjgPvHJOOeecVzoeWMr8XuTx4a7Ha8A1Yp/5LOeF8+3BsdExYT3vc464Znwn2uHBeWS4gCEOYiJ4/ghApHPCe+gQ3hk+z3XiuWzUqJF5Meiwc/64tgg554fzQYeCa0kHhkBB7jGOi2fcb8Qsan3IkCHmMuOicBK48TkhXDzGouiBc2G5ILjrGHMkkIATz4k8EdwAiloXaQUN5gMPPGCNOeJ91113/S0y9XhgIdLAMhxE4BSuYzoAuBlp9GiQggCiRIOFuPgBXM5eNDYR1lhRWGR4RrCsyVnBGCfCxLg215EFISPim8af68q1YcHImDx5sg2F0KZwbRh7xn2N4BHv8O6775rxgbXINWQfEAUaf6x6BJi57XwWASBmgoA3fo/7oEWLFse4noFOAcfBdxONjTuXe417DGFgf2g3EQ6uAUOKGEO0o168BmKE+CCoHCPiTPQ10/MI4MK9jpBzr9HBwCWMtwFvAbEefAfCzZAEViadFfaD32YIieOJnm2EF4BzTlvN+aMNp3OAhc3+0Ulif/gthqP4PjpJeEq4Jli7CDPnB9HEokVIOT6vs8N1JXARsWdfOXd0bDjvt956q7n1EXz2k2PknBFFHinkXG/mgDP3nP307l/OO/rDdcIbwz4zBEZng2NjPB+RZr/odPA5zjnDG7yHsNNR4Z5Be+rWrZukax2t4zi5FyJJr6j1mOVa9ywP7+u4mSIbL+/vyO24CVLawCnXukgrsHJwSxLde+edd1rADg/fyYBlz7gjDRVBOoMGDbIgn+Rcln4Dq4wGMtLiykhoL2grotsSFq8t8aA9YdwTCxbBw+IDb3vguyKbvMj3on+L74vcPvI7eM8jchuI/M5IvO/3iNwucj1/Y+0jrq+++qqN6XoGjPcZ7ze9/Yg+F9HfHfn93mei10d+JhK+O6n3vM966yP3IXL76N/hb47P+zvyPfDOO9+X3HZJ7U9S++l9zlvPNt7/wGvk++AdR1LrIq97JFj9dDaIBYgkcLnWOUAWTjwLf3snwjsZELld5HohMgKEF1cvPfQbbrjBHjgv+vlk4L7GannllVdMSBj7Y8w8XgLg0huvrfDaDRav3YhcxxIJ23jrI9uZyPXR7/F/5G9B9Pd4/0dyvO+MhPf4fm/xto3+PO9FEvme993eZzwit4ncDqK/3yN6feRnIknuPdZFrk/uu/g78r3I44t+j8Vbf7ztIr/fI6n13ue89fztnXtvffTnIt/z8Nb5Ff/umRBpDG43psDgksMlTqARbsrohjS14CpFzHHT4hZk2An3He5CkbYQh4M3BNdy0MH9TQAcuTeEOB4ScpEpwVXGOBhR5oxv4VonjoMxyliAmDPG+uCDD1pPfuTIkeFUjyLtIBiJ8c54CKDlGOgQ+mWYQ/gXCbnIlBA4RJAN802Zm0xkbKwbfwJniKgmcpbpLwRMEQwqhIgvIsfvMwIJuch04FInspYoWNyWRKcSbRo5JhYrmJFB9SiifolKJqAuMuGH38CTQOQwXgohxInhWWGefkZOS4tZ1Hpao6h1ESuYgkKRCSKCH3vsMZtuFiuXenIw9YY56sxFZkoNQXVp/ZsnA0F5XqN0qrECQmQGGC5DzJmmFj39LL2i1iXkIlOBSDHnlgxYzB0mRzRzhdPCGo+Ehx3XOtHs/C5j5+lZjjOlsJ/MycUqD0jTIESGQttB/gDyL0R3fiXkUUjIRSwgmQeWOAkeSK1KGcj0AmscIWeuM4klyG7mx7zNQojYELh55EL4HdxfjFNT95kIdTJcpSekiOQ3yVxFVjE8A16iCSGEOFkk5CLTQOQ4Y9Wk3ySVY0ZMUWJuMCk86VTgGUhplSwhhEgOCbnINJBnGkuY/Ofkgs4ImFNOzmfStpIXG1e7EEKcChJykSmgQALVo3iluEZGliKk6ATVosgmR7AducHlYhdCnCwScpEpoFIUC5mySOOZ1lHqxwOrnBKJJIqhY/Hss8+G60ULIURqkZCLuIcpVYyNk4gFK5hyhRkNiWKYfta8eXMr2EKlNCooCSFEapGQi7iH+sLr1q2zqHFqT5O4IaPBI0CVNbLKkRiGwi0EvmnuthAitUjIRdxDhTNqhOPOZuqXX6AYRpkyZUzMyfm+aNEiS8YihBCpQUIu4hrc1Qg5li7VyLDK/QTZoEgRS7Y3cr+TsEYV0oQQqUFCLuIa3OpbtmyxcXGEPCOD3JKCCmkUbqEWOlH1S5cutXznQgiRUiTkIq5h3jhjz7iwCxcuHFrrLxDzDh06uLx587qZM2e67du3yyoXQqQYCbmIWyj8QTQ4EeJYvRRH8SN4CfLkyWPZ5hBxhgJklQshUoqEXMQtO3bsMGEsVaqUK1KkSGitf2GsnHnus2fPduvXr1eSGCFEipCQi7iF4ijff/+9q1ixoitQoEBorX9hOtoVV1xhEfYrVqxwP/zwQ+gdIYRIHgm5iFsWLlzocubMaYFu1AsOAkxFIxf8/PnzLfBNCCFOhIRcxB1MNWMaF251gtyoY++3aPXkoOPRuHFj9/PPP9v4/ldffRV6RwghkkZCLuIOhJzkKrjVK1eubC7roHDaaae5Jk2amFW+atUqt2zZstA7QgiRNBJyEXcQJEb+8vPPP98VLVo0QyudnQwEvNWoUcOi7umQKIJdCHE8wkKOFfPHH3+Ecz3TeBD1++OPP4bXCeF3EHHmjWPNXnrppe7CCy80KzdInH766a5WrVpmlZMkhsA3IYRIjrCQMxb31ltvmZhTWnHs2LFu8uTJbsaMGRZFK0QQOHLkiBVI+fLLL13VqlVdtmzZQu8EC5LXVKlSxazyefPm2Zi5EEIkRVjIKfFIrmcySm3evNnG5vh7wYIFbuvWraGthPA31PVm2hkVzsqVK2e5zIMI+3/ZZZdZIhu8C1jmQgiRFMe41hFuev6zZs1y9erVc126dHHnnnuuO3z4cGgrIfwNRVJIy1qwYEGXO3duKxEaVBBxxsp5/t555x2zzoUQIpqwkGMBkMKS4Jo1a9bY+CJlFhmvYxHC7/z555/u66+/dhs2bHDVq1d3WbJkCb0TTHj+8CqULFnSnktiVoQQIpqwkJPruX379m7OnDmuYcOGZg1gCRBwg2UjhN8htmP16tU2Tl6zZk33n//8J/ROcOE5bNSokWV5I25FaVuFENGEhZwpOgj4iBEjrBITMH2nU6dOrlKlSva/EH7mp59+smxoZHFjfBmLNujgVSCpTdmyZd20adMsiE+zSIQQkYSF/Ndff7VMUoyNX3755Tb9pX79+m7KlCnK+SwCAUKORU60Oh3ThITw7R1oGO+/6qqrLMHN6NGjbWaJEEJ4hFu6zz77zL322muua9eubuLEiSbgPXv2dEuWLLGoWSH8DIFgBw4ccIcOHXK1a9e2Gt/xAmVYS5cubZb5uHHjlNtBCHEMYSGnISSRBu51xsXJiEWDSIOBpSOEn8FrtGnTJsupzvh4PAVo4lkghuWaa66xnA7vvfeeZpIIIcKEhRwLhrFFpu6QHIbo348//tjm5QalcpTIvJCJcOPGje68886z+uNBy+Z2IphRQgclX758FvSGm11WuRACwkJOKsuWLVtaIpihQ4e6IUOGWClFajkTOSuEn/FSCnOvkvsgKNXOUgoeBqxyxsrJXEcsAFH6QggRFnJSWTZt2tQChRD17NmzuwoVKlhJRawAIfwKXiMyE+JFiucZFoyVI+S8EsHO8QohRAIBQh988IGlYiUNJNNdGCMvXry4WTZYOUx5EcKv4GbevXu3WeHxLOQMf+FxYGYJ0+y2bdtmmeyEEJmbhL1797qZM2ced1HRFOFn6Ghu377dxseJ7o5nEHMSN5EYhpzyn3/+eegdIURmJQHrmwQwLDQQN954o2vTpo397a0ngl0Iv4KQf/rpp1bHO2fOnKG18QlBfORfZyoaQo7HjNS0QojMSwJj4eXLl7fMUYj6BRdcYG+Q35nGolChQjYmJ4QfodCPNz5OfYB4C3JLCgLfrrvuOptPvnLlSjt+IUTmJRzsxjxc6o83a9bMrHKmoGHlPPHEE27hwoWhrY6PV0ENC4HX5PJCe9t422kajThZGB8nmRGWKkKeWWjRooUrUKCAzSzZsmVLaK0QIjMSFvKDBw9aogmiYXPkyGFJKEgNSQGKlE5zYR5v9+7dLfK9Xbt2bvbs2aF3/g++q0+fPhYhTyrY++67z6qtCXEykMltz5494fnjmQUKwvAM0eFmOhrWuRAicxIWcqxilly5cpmI46JMTVINrO/x48fbVLWXX37ZkldgLdBBiISOAr/zwAMPuOHDh1u9aOqfY5kLkVoI9kLM6XzmzZs3tDb+4fnEKueYly9fbqVbhRCZk7CQU4+c8XEyu1GUgQaSvM78jbVzIoh+J20kY+q4OLGOKFyxdu3a0BZ/QbpXrHwaXsqjIuS42DPD2KaIPYg41ij3XTzlV08JBPdVqVLFhha88q1CiMxHWMixxFu3bm1uOkT1lVdesb+Zs5oSlyUBN7j7mHtOg0qCGdJK7t+/P7TFX+BOZ+7roEGD3J133mkZuapVqxY3lapE+kF9AIQcb06RIkVCazMPPGdUKKTcMMNTzCsXQmQ+wuqJ9UzvnkIpVD1DwJs3b27lTLGeTwSNKtG0XrEKXnHNR1sJWN8IPglniJanMWL6UFKlGWmccL8PHDjQKrDJ4hCRMD7M0A2zKjLrFElmlrAQJ0B6ZQWOCpH5SCAjFtHqlC1lrNob08ZCpqEk4xvR6ycCcUZoPbFFmFlYHwnj5oyjM1e9c+fO5l5nLizRx9HQGTjzzDPtOxB8ud9FJLiUsciZQolrPTOCB4wOOIWNmIoWHZMihIh/Er755hu3fv16awQIRJs0aZL9jQXM/9OnT09RZjcKOuAypxQqua/pBOA2Z4pMJFgOCDTCzLg8Y+QEyiVlkTPWTkIaaqQzz53PCOGBkNMBvOiii0zMMyuVK1e2vA87d+40q1wIkblIYGzx+uuvdw0aNDAXJePVV199tbv22mvNzU6mLM9dfjxoTBlnpzGZM2eOBd9gQZNkho4AY+W4/cqVK2divnjxYsvxTlAdjTBj6kKkFO4lhJyhGjw8KblH4xUi1ylwxLkg58PPP/8cekcIkRlIQEAJZkOEsaDvuOMOmwdOL79jx47mYsfKPhFsd80111jg0ZgxYyz4jUAc3OKMdRM4h+V95ZVXWnAOYs92RMRTYQ0XuhAp5ddff7XOIV6aaK9PZoMOM/EmJUqUsGloeNiEEJmHY0LFGd9GcBFhAtA2b95s08VSCpWZ+vXr59566y333HPPuTp16tiUNkovMueV4Dc6Dr169XKjRo1yb775prv//vutARIiNWCNc48SiJk/f/7Q2swLzx5j5Qw1UOhIeRmEyDyEhZw5qQSgkZGtbdu2tvA30cDxXBpSBBOCNInDwJOkevnOYk3wrPG84l5X/nUhMg9hIWfON67xJUuWuAEDBrjHH3/cUqwSaEZjKYSfIO4CDxIxHNy7wtmUToazEHFmogghMgfHuNYZdyTf+ujRo90bb7zhZsyYYe5LIfwGmQQZHyfIUtMS/yJr1qxWj52YgXfeeceeZyFE/BMWcuafDh061H3yySc21kau9AMHDthYtvI4Cz+BQHFvMstC3qL/g4BT5tMzA4WZIfPmzbNIdiFEfBMWcsqYEujWvn1716hRI9ewYUOrecw88+g0q0JkJIg4MykuvPBCCXkUTOVkCinDDcwKUTZEIeKfsJDTcyehC245IoFZCCJivq4aA+Endu3aZR1PsgJKyI+FoDfKD5MDYsWKFVZaWM+vEPFNWMhJ9UjU60svvWQ9eRbKkdKzJ2ubEH4BIScTICKuQLe/w5RP6iRwjqZOnep++eWX0DtCiHgkLOS4KcnoRinS7du3u61bt9qcVHr2ZGcTwi8g5CQawmuktL1/h3ND0FvFihVtTjlDERorFyJ+CQs5mdVIn9qtWzcbH2caC3PJcbWrxKjwC7iJiVgnsVBmzq9+PIjix8NG6mVEnCml1GwXQsQnYYUmEpjxtPfff9+tXbvWotfnzp1rhVNSUv1MiPSA6ZAkgmH+OC5kkTRY5QStkuiJqWhUiSNFshAi/ggLOWLdp08fE3HAZUngDIsscuEXtm3bZmO+pGWVRZ48PLNY5cw8YTYKQ2WaVy5EfBJWaAJjePgJduvRo4fr3r17eGG8TQg/QPwGgoSlSfEdkTx0xplOevbZZ1uip5SUIxZCBI+wkNN7Z4yc8qIquCD8CpYl9yoirkC340PHnA4PxYuoU05+ej3bQsQfYSHPkiWLRa7fcsst7tJLL3Vly5a1BXGnmpkQfgCLnPFxyt+KE4OY416n0/PRRx8p3kWIOCQs5AQRffDBB65///5u+PDhNoecZdiwYa5GjRqhrYTIOJgOSUEQEsFo/njKIeUyBVWWL19uMQZCiPgiLORkcKNeOIkkqlev7qpWrRpesNSFyEi4P3ENk+eAQDcJecphjLxx48YWW7BmzRqVOBUizggLOdHpTFmh6tmcOXPc/PnzwwsFVYTISBByrMnff/9dQn4SkBcib968bvXq1W7Tpk2htUKIeOAYISeIaP369W7VqlVu5cqV9sry9ddfh7YSImPwhJz7lNSsJDASKYe6CZdddplZ41jlP//8c+gdIUTQCQs5Ik4CiWuuucZVqFDBlSlTxqadsZBFS4iMxBNy0rJijTMMJFIOQW/16tWzJDrkiiBoUAgRH4SFnCjgZs2aJbkwhUWIjIRc4YgP9yIzLETq8WajkOJ26dKlyr8uRJwQFnIh/AqpRYlYJ80o4+PEcojUw3AEgax0hBg643wKIYKPhFz4HrIOYo1jQRYpUkQW+SnAODlWORXkPvzwQxuyEEIEm7CQ80BTWcp7sH/77Teb6sM6FVsQGQkCvmXLFstKVrhwYQn5KUB+esqbwoIFC+w5F0IEm7CQ79+/3w0ZMsQKUmABUc6UB/6xxx5TNiiRoXA/bt682VzDF110kfv3v/8dekecDDzXLAQPkpJZCBFswkL+ww8/uBUrVrgzzjjDLVq0yFI6Dho0yMYmaUSFyCgQcizyQoUKmZhTb1ucPAUKFHCVKlVy//3vf92MGTPkXhci4ISFHLclrnTc6AsXLnSVK1d25cuXt2k+uNeFyCi4/yiWUrRoUVnjMYBOeqlSpWyKKXPK6SQJIYJLWMjPOussS8V6zz33WE5mRJxGE+uHOahCZARY4yQxwTN0ySWXSMhjBLEG1FD49ttv3fTp00NrhRBBJKzQVJS6+eabzeXWuXNnc2PSc2/SpIkrWbJkaCsh0heCscixjqeoWLFiEvIYkTVrVrPIcbPPnj3bsjfKxS5EMDnGIidhhBdMhBVOXmvyM1P7WYiMgHFcpp5xP+JaJ0WrOHU4n4g42d727NljlQ9Vq1yIYBIWcoLdeJjJrU7hFHIx00MnAE5R6yKjQMixyMk8iNfo9NNPD70jThXStVarVs2mpE2YMMFiZGSVCxE8wkL++eefu6lTp5rVw1Q05u6S05oiKvv27QttJUT6gmud+48xXS9mQ8QGhs4opoJVvmzZMpudosBWIYJHWMgJKqLRZEzcazC93rkaT5ERcP9hkdOxJNBNhVJiD9Z48+bN7dxilasqmhDBIyzkjD1igWP9IOpfffWVW7dunb2n3NYiI8ArxJAPkdUEuknIYw95Izi3uNjffvtt88ypmIoQwSIs5AS50TPv0aOHRbA+9dRT7s477zSXJrmZhUhvGLP97LPPTMCxyDUNMm2gA9++fXvrNM2dO9em+gkhgkO4ZWQ6SosWLdzrr7/uBg8e7G644QY3ZswY16lTJwsyEiK9QcgpuUmAG7EbssjTBrLl1a1b1zrtU6ZMcV9++WXoHSFEEAgL+c6dO12vXr1crly5XIMGDWxhLvnw4cOtSpIQ6Q15/xnqQWgoXyqLPG0gBoZzjFXO+SbbG9a5ECIYJDB3lICib775xkob/vrrrzZGzjgZY5M7duxw3333XWhzIdIPhJwxWyKrFbGethDBfu2119o0PxLEEGAohAgGCTywo0aNck8//bQFt911113h5eGHH7YGNHfu3KHNhUg/EHLSs+IZkoinLXg78uTJY544ppyS254OvhDC/yR4qRobNWrkGjdubK+Ry/XXX29RrUKkJ3iKfvzxR3PxIuQi7SEG4ZprrrHXJUuWWKChEML/JGTLls1Vr17dxsduv/12V7VqVauMVLx4cVekSBGbnkKeayHSEwLdCLpiLjlBWCJ9oFgSqZpXr15tVdE0FU0I/xOOHuKBPXTokJs8ebKbN2+epWv1lgMHDoS2EiJ9wBrnvqMjKYs8/aDmAkmhiJUh6E0R7EL4n7CQI+JMPfvpp5/c2Wef7bDUvYXGVIj0BJf6wYMHLRkRwW4i/ahdu7YrWLCgCfmGDRuUf10InxMWciLVGZfs06ePu+2226ykqbeQjEOI9ASLHGuQynuqvpe+EPTGEBvnHzEn6FAI4V/CQk50Og3m2rVrbeoJ1pC3MF6ZEsjVTpQx1dL4XHINANsxrYhkH8xbVSYpEQ1Czn3B/HFFrKc/9evXt9kqn3zyidu4cWNorRDCj4SFnIA2RLVNmzauS5curnv37u7uu++2hcpIKYHpa71793ZXX321TV9jPmp0oBxuOjoLDz30kEXE33TTTW7ixImhd4X46x7BtY6YI+Qi/SHgjdTM1CpfunSpAl6F8DFhIaf3jbi+9tprlm+9a9euJugsJUqUCG2VPDzoo0ePtqls7733nmvVqpWbP3/+3xJLUF2JFLBMbZs1a5YVaiAdrBAeXoIi7ikJecbAvPKaNWtadTQi2PGyCSH8SVjICXCrUqVKuOGsUKGCq1ixovXKUzJGSQY4skPx+QsvvNByY9M5WLlyZWiLvyAinulEdA7OPfdcW5jLLoQHmQQZosmSJYuEPAO57LLLbDoa6ZsppiKE8CdhIceV+c4775hrfMCAATb9hIWsb6tWrQptlTxUTCPCmA4BvXnEmaks0dNXdu/ebWPu5HCnIMvAgQNtvqoQHqQGRsi5fxSxnnHwLCPmdLY/+ugjK20shPAfYSFHcJkz3qFDBwsyIoKd8oZkd0KkTwRR7wi4V6GKv1miE0rgNmXcDUu/devW5mqfM2dOkvncFy1a5Pr37+/uueceK9zy+++/h94R8QxCjmsdAcG1KzIGnl+8cix43BgqE0L4j7CQHzlyxIKLatSoES5QwSuBR4j6iaD3jtB6Yssr34lVFQnbUfsc1z2lEwsUKGAdB6Lco/GmwVx++eUub968KmOZSaBTx4wHyuf+61//Cq0VGQHXoFKlSlYdjdgXTUUTwn+EhZykL1g/RKgjwkwNmzFjhgk5FZFOxMUXX2zWNpY9LnkSzGDJR89BJxiORoGOAj1+vp+gJv6OhoxeBMUROMe4OnWpRfxDx44pinT4RMZC3AvPLFY5yWFWrFgRekcI4RfC6omIN2zY0B5WrGhc2cuXL3flypWznOsngs9TXGX79u0Wvc5nGScnWIl5qIyDI9p8H1b5woUL3bhx46x0Kg22Gm0BDMVgkfOqe8If0EmnHgOd76lTp9owmhDCP4SFnIcUAWfs+qqrrrKIYdzszZs3T1HAERY12+bKlctt27bNAt8oiYhoE7iEpY6QX3DBBZZsAotr06ZN5j7HxZ4Sq1/EP6QIRsgZ1pGQ+wM8aMwyIYKduBXGy3mWhRD+4B9HH0h7IqlB/Oijj7oJEyZYI+o3Hn/8cWvYSRkr4hdE4plnnrGhmaeeesrcuiLjoYNF3ocHHnjAtWvXzvXt21fxC0KcgPvuu89mflAeOC05Zoyc+eIff/yxjY+TyMVbUpqiVYhThbgKotYZlsG7I/wB14NsbyVLlrQKiV7CHiFExhMWciLTmRZGljWyupHd7d5777WF8W4h0gMEgtkTTD1TsRR/QQT7tddea3USpk+frg6+ED4hLOReitYxY8a4nj17pjpFqxCxAIucQLccOXIkOZNBZBx0rmrVqmXBb6+88oq524UQGU+4pfSyOPGQAoEtzPXGnSbLSKQXCDkuW4Rc+AsCYmkLOnbsaLEMixcvlpgL4QPCQs7cXQqYYJUTWMZccFxnr7/+uo2bC5HWYInjWkcwyNcv/AczW8jrgKBTtVBpW4XIeMJCzgNJilbynzNGyZg5U8IOHDhgjasQaQ2dSXL+4x2SRe5PSMrE7BFKFXu1ypXtTYiMJSzkpFPFTVatWrVwilamlzA7LSUpWoU4Vcg3gJDTgZRF7l9oH9q3b29Z35iSRmdfCJFxhIWc6WdYQUuXLrUUrdQfJjIVIVeyFpEeRAq5LHL/Qs2DUqVKWQ0Eht1I7MRQnBAiYwgLuZeiFVeZl6KVh5SgN2qLC5HWkP2PfP3ZsmVTjXqfg7fuuuuuM28dJU6pkiiEyBgSqDqGeOMuIy86udAZ/2KckhStzZo1C0eyC5GWYJF7kdEqkON/yL9OR3/lypWWGdKrfCiESF8SVq1a5caOHWvTScjYxBQ0ppcQ9IbrDJe7iiSI9AAhZ9xV0x2DAfUUiGBHwPHeJVWKWAiR9iRgAZESc8GCBeYiW7Jkic0PjVzI5CREWsLUM2ZO4BmisI4IBhRGImEUVjmLAmOFSH8SSPiCe+z999+3HjUZm0aMGBFeXn31VatmJkRawhRHL9BNFnlwIJahcePGFttArXIS+ggh0pcExsVJx4qAU6mFpDCRy1tvvWW9biHSEjqRzEfGGpeQB4smTZpYMRUscrx6Qoj0JYHkL0QLEylcqVIlt3nz5r8tJOoQIi1ByH/++WebPSEhDxa0HcTTMDyCkONZEUKkHwm4zRkfZxz8pZdeck8//fQxC7Wh161bF9pciLQBIUcIEAWmP4rgQHGbOnXquNKlS1tbwdRVIUT6kVCkSBGbZkbaxbvuuutvy5133mnJH4RIS8gOxgwJxshJOCKCRZ48eVzVqlUt2I14G6VtFSL9SODBI1oYy5yedVILke1CpCUIeZYsWaxUpggeJIhByOn0k4OdDJFCiPQhgYxMc+fOtZzJkyZNci+88IKbNm2apWcdNmyYmzBhgtu7d29ocyFiD/OQidMgAlpCHlwKFiwYtsppQ5S2VYj0IeGcc85xhQoVMpfmrl27rFgFDyTrcuXKZda6gt1EWsLUMwr2ELEuIQ8uZ555pqtYsaJjSitT0YhiF0KkPQmFCxe2nMkEqzBG2bdvX8vsdtNNN7levXpZelZldhNpCV4hrLecOXNKyAMO7UndunXNKn/zzTdtfrkQIm0JF02hyplX9ezQoUMWxY5LnakkytYk0pJ9+/a53377zbxBeIhEcCFtKxY5qZ6ZDUMdh//973+hd4UQaUFYyHGtlylTxg0cOPCYMXIa1rx584a2EiL2IOQ09rjWCXgTwaZAgQKuRYsW5skbOXKkGQgYCkKItCEs5Ewfuf/++12bNm0szSLzemvXru3uvvtuq4gmRFqBax2XOsFuzJIQwYaxcjK90X6QHXL37t2WI0AIkTYc02riFqMn3a9fP/foo4+aqOPuFCItwSJXIpj4Infu3K5Dhw42ZDJkyBDL2ieESBuSNH+YN6654yI9wFJjDjlpWamBL+IDqtgVLVrUypxOmTLF7dy50x05ciT0rhAilsiPKTIMxk0ZwiFincyCEvL4AUOAztmtt95qAj5u3DibyiqEiD0ScpGhMEuChh5XrIQ8vsAqJ/9606ZN3ezZsy17JK52IURsCQs5EaYkhHnxxRfdgw8+6O69997wsnz58tBWQsQOLPI9e/aYkGORa4w8vsAqJ4Cxc+fOdo1nzJhhwyhCiNgSFvIvvvjCUrSSwIHeM9OAvvvuO4soVgEEkVZgkZOnm6lnJCQS8QUFcKpUqWIR7JQ4pTra4cOHQ+8KIWJBWMhJw0pKxWbNmrl//vOfFrHO+FaxYsXsfyFijWeRe4FumnoWf2CVYxS0a9fOEkt98MEH1nkTQsSOcMtJo0rvmTzruMMQdtydWOUsQsQa7jnmGJPTn7nHIn6pWbOmq1atmlu1apUZDPLyCRE7wkJOr5npIkB98oULF9qYFr1ojV2KWIOIk/GLqHUJefzDsAlePl4XLVrktm/fHnpHCHGqhIWcMcrmzZubK6xbt272wO3fv9/WUdFIiFhCSlby+TNeSgpgCXn8g1VODnbGyRcvXqwyp0LECBNyrKNvv/3WrHCyu+XIkcP17NnTPfvssybkZN0SIpaQCIZZEnh88uXLZ/ediG+Itbn66qstWyRCvn79+tA7QohTwYQcK5xoddxdqlQk0oNoIZdFnjmoWrWqjZVv2bLFzZ07VznYhYgBx4yRU+msU6dObuLEie7dd9917733ni1MQRMilnhCTtKQ7Nmz2xQ0Ef8wMwEvH0VVli1bZpa5EOLUCAs5lhFWOa9Llixx8+bNCy9K4iBiDUJOxDrj48Rj4BUSmYNSpUpZQO0333xjJZNpd4QQJ09YyJlqRha3Xr16ua5du7rbb7/dMjKxFC9ePLSVELHBs8jz589vVrnIPNBxq1u3rpVHXrFihRkLQoiTJyzkjFFSkxzrm7meS5cuNcuchaxvQsQK4jCIWOZeQ8jlVs98FClSxLK9kbuC6mhY50KIkyMs5FQmIkUryRrGjx9vNaIRcXrMeshELCGvP51DxLxAgQIS8kwIhgOBb9WrV3dr1661WBwhxMkRFnLEGhdXmTJlrJHlAWvUqJElg1EdYRFLSASzd+9eGxeXkGdeLr74YlevXj0LdiTAFg8NU2GFEKkjLOSMWWIp1a9f36LXcXm2bNnSnX766e6nn34KbSXEqeMJORHMCLly+WdO6MBR5rRJkyZu69at7u2337ZgWyFE6ggLOQFHBLzxIBFVyrQQ5nn+/PPPamhFTPGEHG8PyUHoLIrMCel5GzZsaB261157zYb0NLdciNQRFnLcW1jgCPltt91m4+PDhw93l1xyiStRokRoq+PDmCdzzkn2QFWrH3/8MfTO36ExpwoSDbqmn2QufvvtN7tPvEA3TT3LvHhemfbt21ve/bFjx5rxIBe7ECknLOSUkmS8ikaV6PVBgwZZNOldd91lD1pKIGjl8ccfd7fccot78MEHra55cq6ybdu2uR49eri+ffuqgEImg04c46GFCxe2qGWRuTnvvPNsSK9ChQpu2LBhll+AYT4hRMoICzkPDg8QAkxN8qZNm9q8cqai0fCeCAR7zJgxFiw3c+ZMs+4XLFiQZFY4tp08ebJZ8KTnFJkHLC2u+6FDhyTkIgweQdoe4nEQcwrqCCFSRljIEfH+/fu73Llzm0ud8SoSNowcOdJ99NFHoa2SZ8eOHZboAXcpPWwaaaJSmc4WDeVRGRvFZa8c25kLhlFopBH0QoUKSciFQYxO+fLlXbt27Sw9NO0GLnYhxIkJCzlWN5YSmdwIditWrJhr27aty5o1q5WaPBFff/21VbAigIlxr7PPPtvytzM/PRKmuX344YeWLY765xofzVxwj1EeFwEnKQj3ihC0A7QX9913n5VUxoBgyE1j5UKcmHArykPEWDiBajSuRKoTjIbljNvrRBBpyue8htn7O3qM/I033jD3O0KOBX885s+fb+62Ll26uPfff9+CpESwoVOIkBOpLte6iIR7oWDBgq5jx47W9jBrhgA4IcTxCQv5L7/8Yi70hx9+2CJIcXHRO54+fbrVJb/55pvduHHjQlv/HSx3hNYTW15JJINlHgm/MWvWLAuKI4Mc4+n8Bq79aGjoGzdu7Fq1amXWm6YpBR+EnMb53HPPtQ6i1/ETAnjGW7dubR5BgmVXr16thFRCnIBwK4rlTQnTa665xlWpUsVVrlzZXXHFFSboZHirWLGijXknB0FrjH9++eWX1lgTzMTfPJCR0EmgjCHfz/cxd50Fl3w0fOfll19uv8/Yu4Q8+OBa575gZoTyE4ikoF244YYbrD2ZM2eOZrUIcQL+kRijQSgKYRAkh7XFVLZvv/3WxPnGG2+0cXHcZoy9R1pguNlJB0tmp7Jly4bWJg0WPIKPZ0AEl0WLFrnu3btbR27EiBGhtUIcC+1Hv379zCInVgcDgIyTQgQJvNqXXXaZGchpScz8mgg0U9YY4yLwLUeOHJaxCZc7iWGSSvOKu5zx8mzZsoXWiHiGOAruBRbuEyGSA2Pg6quvNvEmVmbNmjVmLAgh/k5MByhxf+Oef/LJJ83qIsEDDyLlCmvUqPG38VDWMWf9eC57ET/gKsU7gxOIe0WI41GtWjVLFENwJFNWNbdciKT5m5BjNRGoxnQ09YBFLMErw9ALsxVSmi1QZF6YW05iKQwCyilT6lSBb0L8nQSsI7K6/fDDD9bj3bVrl7mx1q9fb1nZcJMT0a5CBuJUQci5x7zEQUKcCHJNMGRHTn6qo5F4SghxLAlY3hs2bHCPPfaYBZ0xKP/QQw+Za5wxboLVRo0aZaKu5AziVEDICW5kSiIxFEKkhAYNGtgUVER86NChMiqEiCJh4cKF7vXXX3c1a9a01IhLly61ud0kYyBNInPIybr0zjvvWN51IU4WhJxAt7x58yqjn0gxZIxkrBxBZ9YDbZEQ4v9IIOCsd+/e9qAwvYvgNCLNWUjawTxw5nTedNNNrnTp0qGPCZF6EHKGcBTcKFIDnT7KKZN/gimtXlEVeQiF+IsEGlbyofOA4LIiRWtkkBulSdmG6SAqcCJOFu4t7iMi17HIhUgNBL5VqlTJXX/99eZif+6555ItkSxEZiNh69atNk8TaGjp7UbWAsaVRQCcEKcClawInCSbmyxycTJQTAXPYd26dS3wjaxvqr8gRMgiJ50qEPi2bt26Yyxy0mniEhXiVPj+++/N88N4pyxycTKQoplEQgTg4h184YUXrLhKpOEhRGYkpglhhEiO7777zjqFDOGQZ12Ik4EqjbjYidkhfeuECRPCSYaEyKwkkGBh586d5qqi2hA5jqlGxv8suNWVhEGcKljkLOedd54tQpwsBOEyVl6nTh03adIkt3jxYnkNRaYmgUYVlxWlRZctW+YKFSpktb/5n0xKjGny4AhxKiDiVD7LmTOnapCLU4JUz1Rr7NmzpyUXwirftGmTDA6RafnH4cOHE5nbezyYksbYZkai6mfBhsp4JBYisUevXr1Ca4U4NZ566im7txg3p20g9a9yFAi/kK7Vz7C6mTdOtq1cuXKFF6wnpp0xdQixJxhOiNTC/cMYOUFJuXPnDq0V4tTp1q2bjZlPnTrVLViwwNJJC5HZSGDqWY8ePSxb0oEDB8w95S24Qjdu3OheeuklN3jwYItoFyK14FZHyAlUwqsiRKwg3e/9999vpZDHjRtn4+UKfBOZjQTSHt577702jYNI0EsvvdTSteIOqFKlinvmmWdsulCHDh2sCpEQqYX540QW0+ji6REilpQvX961b9/eOoxTpkxxmzdvDr0jROYggYxJxYsXd127drUxTCxzLPA33njDotbJoEQpQSwpguKESC0IObMhGL6RRS5iDcGTrVu3tlzs1Id48803TdSFyCwkUI2KKWaMhWN509BilZcqVcoVLlzYxjRpgCXi4mTBGj98+LC5P7HKhYg1zL5p166dWecUfJo8efIxia2EiGcScEPNmzfP/mEcc8CAAfY3wq3oTxELsMgJeCOYUlPPRFpAW0WBp6uvvtruM7yJVHYUIjOQgAuKIDegoMWSJUtUjEDEFIQc64hZEEKkFQwTUs2xSZMmNstmzJgxbt++faF3hYhfEmhgcXviYicXNlOESKXJ/95C9LoQJwP3Dq51pjhKyEVaQ2GVRo0auVq1arlVq1a5sWPHWvvmF0i29eGHH2oMX8SUBLIkIdy4onCx46KaMWNGOEUrCxHtQpwMiDhDNsRZSMhFekB2SlzsJUuWtMA3MlT6xcs4ZMgQN3DgQLd3797QGiFOnYR8+fK5EiVKWAU0eq6UCcQy539vkUUuThbuH4ScYEpNPRPpAXEYpUuXdh07drTgykGDBrn169f7okoaXgLSX9PGChErEipXrmzpT4+3kDlJiJPh888/t4IWRKxnz549tFaItIWU0uTC6Ny5s3Umn332Wbd//34LuhQi3lAZU5Gm0IjSeDJ2SQ1pIdILOo/Nmze3SmlUdGRKmhd4KUQ8ISEXaQoWOYFussZFRkAHkhSuZKnEKieFq/Kxi3hDQi7SDHJeY5FLyEVGQfAuyWJeeeUVK3362GOPWfY3P4yXCxErjhFy5pEzPYKeK+UBiV7HFSXEyUDE+g8//GANqYRcZBQEv1He9IknnrBhnhdeeMHEXMVVRLwQFnLmi9NrHT9+vCVWOOussyzV4ciRI92WLVtCWwmRckg0RGIORFxCLjISMlXWq1fPapYT9DZ69GiLZBciHggLOUUtVqxY4Tp16uRatGhhQSLkLsY1qnnk4mSgwfz5558tZSZjlUJkJOQyuO6661zdunXdmjVrLPhtz549oXeFCC5hIWfMiGlCFB3ADZU/f34rnoL7CZe7EKnFm+6DiOPhESKj8UoyUxSKDGskvIr18OGRI0fcb7/9plTXIt0ICzm91SJFilgJU0qZTps2zY0YMcKdccYZysglTgqEnGEapgGpep7wC2XKlLH65bRrxAG9++67MU16NX/+fPf888+7RYsWhdYIkbaEhZwMSFjjjJVv2LDBrVu3zsY4KUJwySWXhLYSImXgyfnss8/MEifYTQi/QFpq2rUbbrjB/etf/7K4oAULFsQsWQxV155++mnrIAiRHoSFHFcQKVp79+7tmjVr5po2bep69OhhfytQSaQWLBxy+CPiWORC+Ak8RQ0aNLAxc+aVDxs2zK1evTpmkewEeWrGj0gvwkLOzUwACOM75CnGOkfAmYepTEgitRw8eNDuKebuyiIXfuTcc881Q6VNmzZW7vSZZ55xu3bt0rQ0ETjCQk76TIKSGBenZ7p582abdsbCXGAhUgMzHbDKKZQiIRd+hfuTSmmkcaWgCbUlmMEj40UEibCQUx+XMR2mZNx22202fsTNzSvBG0KkBqb1SMhFELj44ottqu0111xjQb4kxMJ4kWUugkJYyHGnL1myxHqlkQvrrrjiitBWQqSM3bt3WwAl5UtJ0SqEn2Fa2l133eWaNGniXnzxRUsYQ/ldIYJAWMh37tzpHnjgASv/F7kMHTrU5lsKkRoYa2So5pxzzgmtEcK/EMmOmD/yyCOuWrVqVsP8rbfesjTDQvidBKLVqVC1Y8cOc4fyun37dltIYcgriWKESCncU0w9I9BNQi6CArkOChYs6AYOHGhJsQYPHmyudkWfC7+T8NVXX1lO9YkTJ5qQY4F7C+4lMrwVLlw4tLkQJ4YIYFKzMvYoIRdBgmEgEsb079/fhoVee+01N3PmTAuAE8KvJJDRjfFxxoYI9qhfv354YZ7ltddeaxnfhEgJBAjh1fn9999dvnz5JOQicGCZ16xZ091zzz2W2XLs2LEWCExAsBB+JIG5lBUqVDDRLlmypL0S3MZCcQHyBcu1LlLDtm3bTNDz5MmjHOsikJDxrVGjRu7WW2+1/ydMmOBmz56ttlD4knCwG65QxsQjp1zwN1PPsLCESAncM8RVYInjmqRBFCKIkFsDg4a87HiYxowZY8OQtJVC+ImwkDPnl8h1Uhd60AhT+CKl40PMvSSZDDf7smXLrARqNKxjStsHH3xg+Y1p9FVdLX7whBxrPEuWLKG1QgQTPEpXXXWVa9u2rQk4CbPef/99ibnwFWEhJ8iD6WYUS6FwCnmyN23aZIUEIsU9OWjAEW8C5F599VU3cuRIN2fOHItgjgSrf9KkSda7ZRsS0NDwi+DDPUCHcO/evRboJiEX8QDeJWKFOnXqZK715557zqbkUptCCD8QFnLm/FatWtVSFE6dOtVKmTINgylEKYlax/U0ffp0q/OLkBM8R+52UnVGQgPfp08f9/rrr7t+/fpZPu558+aF3hVBhngKItZp4JjGIyEX8QKxRAQDkzQGa7xv375u8eLFZqjQgRUiIwkLOYJNalaCO5hXzjzgVq1auc6dO7vixYuHtkoextGJ8ESoSclZqFAhS7CAqz0SAupy5MhhkaGk78QLoJ5tfPDHH3+EvThcfwm5iCeY4UObSNIYPE+33367W7FihcRcZDhhIQfc69Qer127tuvVq5dFbSK0NNAngnF0Gm62B/4mWOR44+srV6608fGiRYuG1oggg4BTZIdGDYvcuxeEiBdo15jZ89JLL9n/rVu3toBghF2IjCIs5KQiHDVqlLvjjjvM9Y37iJq6zz//vPvoo49CWyWP1yOl7GlKYFycRAtENjds2DC09lhmzJjhOnbsaJGjuPoVFOdvPCEn0I0866eddlroHSHiBzqoDEOSLAbv45133mmxPkoaIzKKsJAT3EYAByLOWCfCzLg5N2dKyphyQyO0ntjyisuJsaVoDhw4YNGfuNYRacQ8Kch5TP73J554wtWoUSNFQXci48Bzs2HDBvOw4I0RIh7BWCGavUqVKhYPdNFFF1k8EYYQbZsQ6U1YyLGmEF+yvOFi52ZlHBtBT0ltXnIT8/mDBw+aNc8YO2PtfF8kVBQi/SuRoFjifI6CBUlBR6JYsWL2HdmzZ092O5HxcP/Q6aMhI6aCeAkh4hXaRyxzxBxDg3Zs/PjxNhNHeTdEehNWRiwoLGTmd2NJM6ecbEYIeXIWcyQIM1YzrlWCQZgjzs1NEN2iRYvc0qVLrUPw3nvv2TxMprkRHf/MM88oaj0OYNYCFc94ZeaChFzEO4g5uTZo93r27GnxRWR/+/jjj0NbCJE+hIWcSPLmzZtbHWnc5ARwIMq4t7GKTwQ3db169VytWrVMwOmpEiyHax03lBfBjBvqpptuslzuFGRB6BlPFcEGb8zmzZvNa4JFrmEQkVnAc0m7161bNyu4QlsIDFGmJFBYiFPlH0ct7vC8CSIviSRnyhjWM5bVZZddliKLPK1hfjudgJtvvjm0RvgJhlKIryCrH94WOmhegyZEZoCmlLbzlVdesUBdik317t3bXX755eEZHHg9SbhFsiwMHRHf3Hfffaah5CBIS8IW+ZEjRyzgjcA2rPOcOXOai50yp5paIU4EFjkzEUqUKGHDNBJxkdngnq9UqZJ5HJmWRptKFrhZs2apcppIU8JCTqASUyiYUrFq1SrrWTJG/uabb/4tO5sQkeC9YaoiVvmll15qrkYhMiuMmT/88MOW0pXnAm/itGnTzFBKSeCwEKklLOS4ewh0GzZsmBs8eLAtRJdT5ISxTyGSw5utwCtCrvnjIrODC/3GG2+0VK641RF2pqfxjAgRa8JCzpQzpnhly5bNAjRwCxGkxjoiM1lH8IYQ0VBIgik33EME+8giF+KvymmMgw8fPtyeC6+2BDCeHhGeJMQpERZyxjXpOVJ7l/mQVCijQADzvpkPzrQx8mgLEQ15A7xc+4yRyyIX4i/o3BI0TLVH6lh4iZJoV2Wdi1gRFnJ6h1jc9CKZB+nN+8YSJwqZud7btm0LbS3E/8E4IHEUZHRj2pkC3YT4P5iSSXKrRx991HXt2tVmAeFqJ1/7/v37Q1sJcfKEp58Roc54eHLQODPfmxsyI9D0M3/C7UOCHxqoli1bukGDBoXeEUJEQxv7ySefmLudpFvVq1e3ehLk61Dmyvgj3aefMc65du1aC9KgFClFShBPCqbgMiXJS0aJuPAvuNWxKvDmlC1bNrRWCJEUGCN16tSxnAtNmza12gQDBgww13tKaloIkRRhIaf6GUkKsLw3btzotm7dahndcKvLpS6Sg2mLWBZ09ohYF0IcH2KRKlSo4Dp37myR7dQpePnll82bRXurIDiRWsJCTo5sgtpw71AFjTSbJDVgnJzADCGSgg4g4+N4a6hBLoQ4MQSEkpv9uuuuc7fddptlgSOgmAQyb731ljt8+LAEXaSYsJBjUTEGTsT6kiVLXOXKla0QCsKu4CWRHAg5c8gRcQIlhRAph1TGzZo1c927d7epatS6QMwpj4onlGnAQpyIsJBjUVFWdM2aNa5w4cLmVqfXyHQixnWEiIYZDaTwJWqd+0QIkXqYklaxYkV3zz33mHWOAfX888+bu50qkjxjyuEhjsdpPXv27E+gG4lfmO9I7e8rr7zSrHMscaqX5c6dO1y9LKMg6I59KleuXGiNyGgYcqGhIZ4CFyHTz4QQqYe2ljaWDjHj56RzXbhwoQUgA94uxtZJziWCAzN68uTJk+aGTgKlSr164BRHoXypBzcNAqpC+SIpiKlgfJzOnixyIU4d2lwMKiqoPfjggzZO/vTTT7unnnrK2uKvv/7aguPSAgy6PXv2qMBLAEnYt29fuNfHhXzjjTeOqaGL0JOHXYhoGBunUArjfPny5QutFUKcKmSE69Chg8UstWnTxq1YscLdfffd7oUXXrBxdIKTYx0MN3PmTNeiRQvTABEsbIxc0ZHiZDhw4IDNfcUaV1pWIWJP3rx5zRofMWKEK1mypBsyZIgNYyG2RLbHEgw4hsmoeCmChQm5otJFavHKlnLv0MAIIWIPzxdFiMgA9+KLL1pEe9asWa0AS6tWrSxxVywD4TDqVGo1eCTQIE+cONHVqlXL0shRGKVBgwb2P8uUKVPM5S5EJAzJsDDbQUIuRNpCDQOCpmijBw4caNPVSMZ0//33W6ErpgyrCEvm5R9HG+NExsGZL+71xiLdpPxPQ42LJyNRrnV/MX36dHPz5c+f3yyFjJ7VIERmARc4QW+kdyUbJ2PbdKix2q+66irLsMgMn9RCvXTyvpcvX96mIYtTJ91yrZNXvXHjxjaHnIQETZo0sb+9hfcyWsSF/yBanVkOhQoVsmkxQoj0gUA4jJq6deu6Ll26uP79+9vUT2YcPfLII+7ZZ5+16pVe7XMR/4QTwgiRUhiO2bt3r02VIbWkYiyESH94/kjzev3111tE+y233GLJZLDSn3nmGTd06FATdAobifhGQi5SDXNNGR9n2hk5+YUQGQfBcCSRISvcvffeawm9CIB7++23LUMc6V6Zg6754fGLhFykGgIiGaOjtC1j5EKIjIeAuKpVq1ogHMlkGColUHns2LEWIDd69Gi3ePFipXyNQyTkIlXQAGzevNkCI8nJryA3IfwFMSsEviHmzEHHQmc4DFd737593YQJE9zy5cvd/v373W+//Rb6lAgyEnKRKpjyQsre888/38bHhRD+hGIsRKA/9NBDFpGO650AVYLhsNqHDRvmli1bZoJOYJwSgwUXCblIFZ988okVdEDEsciFEP6GMXSGwXr27GlFPB577DGrj0B2uHbt2tm4+uzZs60kcUpA8CX6/kJCLlLFypUrLQoWEVd5WyGCA7NLyArHXHEi2ydNmmS10MnjjqDjdk8JWO8KnPMXEnKRYsgchZDnzJnT5o9r2pkQwYPnlrnoBMbhZiehDAm3KGENO3fudC1btjR3fHRgHIGuDzzwgLvjjjssL7vwBxJykWJWrVplFc/KlCljQi6ECC7MQ2feOUWPsNKZpjZmzBh3ww032PTSPn36WEIw5qi/++675npnPH379u2WEIppqMIfSMhFilm4cKFFuVIvOXfu3KG1Qoggg3VO8CrP9RVXXGFj5qRdxvJmCI3nHrd7p06dzHInTubIkSPKHOcjJOQiRRDtSmEGBJzAmTPOOCP0jhAiHqDGBhY6gaw1a9a0jHEUZendu7fNScfFTkZHxsd5nTp1qo2146VT8FvGclp/EvUGADITUQigXLlyoTUiveAhZd4pY2Y80OR4JupVCBGfMI7OfHQCWsneSC53FlLCZsuWzTr2jJ9TuIWFKakIPNY9nyNSXjibJUDVOoYv0hIJuTghCPkLL7zgdu/ebWNpVFfigRVCxD9UxqTjXrBgQVe2bFmz2Pmb1z///NPGy6mWtn79ehN0rHVE/vfff7d2goxzmTUwNr2E/B9HG+lA+ERUxjRjoIwtD2X9+vWtR84cVNUfF0Ig4qRqRsAZN9+4caMFw2Gt46JH7LHmCYyl7c6VK5fLnj17phqWS68yprLIxXEhuI3pKYyHkRmKm1JlS4UQWOq0yQTEMabeoEEDE24C5wiE27Vrlw3JEVtDWmfG0slBwYLYY0Pigud74tVil0UehSzy9Idb4/PPP7fpKGRzmzx5slnjPHhCCJEcf/zxh7ncmbJKGlisdtoSDAMCZomQJ30sU1nJS0GHgLoNpJWNp2G79LLIJeQiWeg1f/jhhzYlhTmlJIG44IILQu8KIUTKwAonmcyiRYvMQl+3bp21L4ALnjKsVapUMXHHgmWOO4LOa5ANh/QScplWIlkY/xo5cqQ766yzXNu2bd15550XekcIIVIOFjeZ5JibzlDdli1bzMN35513WvvC0B3z1KtVq+Zq167tevXq5aZNm+YOHTpkcTri+EjIRZJQx5jxLWITbrnlFnN/Mc9UCCFOFsbCWRD2WrVqmcX69ttvW753Xu+66y534YUXmoh36dLFLHVKslKt7c0337SZM0TDi2ORa138DW4JolCpZ0yqxlmzZrl8+fJJyIUQaQLJZhg/J0ju8OHD4XLJtEO45AmcI0qeQNuLL77Y8sLjhif4mah4v46ra4w8Cgl5+oF4U+Jw/Pjx7tZbb7WUjRJxIUR6gbAj6j/88IMlmiHPO9Y4LnmKuuByJ6CO+e14C4kKJ4AOgWfM3S9z1yXkUUjI04cff/zR3FpDhw51efPmdc8995xZ40IIkVEwTk7bRNwOeS2IgP/ss89M1ImOR+yx2HHLM1+dZDVkoWPBgseVnxFIyKOQkKc9lCll3uPw4cMtyhTXetOmTUPvCiGEP8BiJ44Hy/zAgQO2IOxkleNvIuKxynPkyGEGCcYIljpz3qkVwXvpgYQ8Cgl52oIbi8C21157zR6Em266yRbmdQohhJ9BxmjDvPKqLAwR0pbhlqdaW9asWc06J2kNFjsLAk+mubRywwdSyL/77ju3bds2c39w0uj90BuKhnEOek+c3Pz589t2J8oWJiFPG7j89GqXLl1qY+K4rK699lrLqa4540KIoIIrHgud+uksBMwh7ATSMbZOciui4j1hZ3ptrGOB0kvIY5aiFUH44IMPbI7g6tWr7cThqiUIITKiELEnkArhoGoO4x2cQET6eChFa+zgWhEoQrY2Ol7Tp093o0ePNnc6WdzatWtnOZGFECKoYGkTCIdg16pVy9WrV88yyVG9jTF1DMr58+eHtYrkM8xpj6XbPXApWhmT6NGjh00JaN26tZ0gsoIxFzCyyAZCTw1bLGsCE3DlcsJ79ux53N5QLC1y9pXAiJQeempPkZ+2Z1sWxpQ4ZgScmxavCZ0jrsUXX3zhihUrZlY4ZUozKjBECCHSA9rCtWvXWmDvggULzBNJZjmGE8kbj6DHgsC51smli6WNEDRp0sTm/82dO9fEt3379qGtnGXsYd5fs2bN7L0XX3zRhIQDpqcUCfMKER0iFomeJliB7D+nCp4DfpOLCd4piDwV/B29Pvr9pF49jvf+qb4Hx3s/+pUhDAJDcClhhTN+RAEDep5cC6zwK6+80oZB4rV4gRBCJAXDvK+++qqbOHGitYdMt6UATCwInJDTq0EgGzdubG4M3BVYe4jwPffcE9rKmRAj9pTFRLgRf4SFnhAnMRIy+YwdO9asR9y+5PpmOVXoRJDz18v1mxmgyhClBZmagfVNTXGuAa4mBbQJITIz6NSgQYPcpEmTXIsWLVy/fv1C75wacSPkfP3dd98d2sqZa5xtIoWcSEOEHIs7EixyFs8iZ9pALCxyEvaTaAB3s2eBRlqiketO9H7kq8fx3j/V9+B47yf1SowCYs0QBgUIGMJA2BkT4jXye4QQIjNCYBwxXAz5UqEtFgROyBFHAqawthFqXOvz5s2zk4JIe9x///2uaNGiNj8Z1/qQIUNsfILx9eNFScdyjBxXM50D79BTI2QnI3qp/Uysf4P34rnmrxBCnCoMtaILGDqxil5PLyGPWdEUrGnGsxl7ZTyWOXz8jQs3ksqVK7uNGzfaWC0CTvQgwVVMB0gvsESxTrFSPUs1pQvjyqld+L3ULFjQqV2wrJNbuCkl4kIIkTy0lbS/sRLx9CRmQo4YU35u8+bN7qGHHjI3O5Y305iIYGdMmt5OjRo1bFui1R999FHrBRElyEkUQgghROqImZBj8dWpU8c1bNjQpqAxBo6bnTniiPn5559v2zCvr1WrVlaaDpcDEe7RVrsQQgghUkbMxsjTGmV2E0IIESQCN0YuhBBCiPRHQi6EEEIEGAm5EEIIEWAk5EIIIUSAkZALIYQQAUZCLoQQQgQYCbkQQggRYAIzj5wc7dSPLVKkSGhN0hw+fNhSlpJqL6iQ7Y50t/FQF5wKc6Q8JFVtUImn68FxkJiJdMNBhmaLVNBcE+oIBBWKQnEsQa9AyDFQoTJLliyBTHHqEevrsXr1anfXXXe5du3ahdakDYERckT80KFDJtLH4/XXX3elSpWynO5BZefOnW7GjBlWFzfojB8/3uqcUxEvqFCveNy4cZZ6OOhMnTrVytnGqt5yRkEH8ZFHHrFrwvEElXfffddemzdvbq9BhfTb/fv3d926dbNCWUGF1OJUxoxVApfff//d9Ci6smesCYyQpxRqn5PzvWXLlqE1wWPlypVWtpVC90Gnd+/erkSJEu6GG24IrQkemzZtMsGgcxV0BgwY4HLkyOFuueWW0JpggjVOOmiuCccTVF588UWzACNLPQcRSkJzPUaOHGnlpoMK+09Br4cffji0JhhojFwIIYQIMHEn5BSED7KrDf7zn/+4/Pnzh/4LNrly5bLCOUGG8bK0do2lF7g9KWAUdBgXp7pi0KsmUlAqyB6FSAoXLhzo2CTg2aCwV9A4rT8DG3EEQVUXX3yxy5o1a2hN8CBYJFu2bHYcQYfrkSdPnnStNx9rEA06I/HQueJ6UHyI+yvIELBHoBvBr0EWc4SPzu4FF1wQWhNMuB4YIIUKFQq0mLPvdHaD1rmKuzFyIYQQIjMRN0JOdCDTH5gqhNXBNIgg9Ax/+eUXmzLHZWCfsTL4m+MgepIgEix0LFosD3q+foP9PXLkiAUgsb/sI+5ojgdrluMjypjtmPaEt8SPxwHsI9eEaVr8zbn3joVj45pwbTgurhX3ml+PxeObb76xV847sz64Ft49x/6z3s9TuHiu2V/vPPMc4AIlUprr8ccff9j+n3XWWXZ/+fV6sL8//vijPSuce+4p7i3+555jHW0WQ4N+vR4cg/c8e7COZ4FjoQ3geLgGXA/W+fV6cM69donnnP3leWAKGvcc63leaHv9/HwYR3c2Lpg/f35iw4YNE4sVK5bYsWPHxKVLl4be8TfPP/98YsWKFRMLFSqU+Mwzz9i6ow9C4tq1axPr1atnx8PrmjVrbL0fOSp6iYsXL06sXbt2YqlSpRLLlCmT2Ldv38R9+/YlHn2wE5977rnEKlWqJFaoUCHxvvvuSzza+IY+6T84x1yHypUrJ5YtW9buqeHDhyceFYvEgwcPJrZs2TKxdOnSibVq1Up877337Nj9DMfTvHnzxAYNGiQuX7488WgDlfjyyy8nVq1aNbF8+fKJd9xxR+J3330X2tqfcD2KFi2aWK5cOXtW2rRpk3hUPBK//vpr+5v7rWbNmolTp05NPNowhz7lL452AhOPdqgSO3XqZM8BzwnPxY4dOxJHjRqVWL16dbvfeP/bb78Nfcp/fPXVV4nPPvusHQNLyZIlE3Pnzp04ePDgxAMHDiTedNNNdhwcz9ixYxOPin7ok/6C53nIkCGJNWrUSLz00ksTmzVrlvjuu+9a2zRp0qTw+rZt29p1437zM3FhkWMpNWnSxHXp0sUdfdDdK6+8Yr3aDh06+H6s45NPPjGrgmk0jF1SiH7Pnj1u9OjRZikdfbBtbjw93RtvvNECSvwG3pDPP//cpm0c7XhYj/22225zRztUZoHs37/f5vXTs33//fdtDKpz586hT/sLHgfONVYevfQVK1bYHHL292hn0axBkjvw99GGy+47v+Ys4BjeeOMNd7RT677//nubQndU/Cwnw9HG1mIXjnZG7LqQtMKvHBUO98UXX7gePXqY1cR1YTkq8GYpHRVz9/HHH9tzU7duXXdU1EOf9A9YeA888IArXry4a9GiRdjzxrVZt26dTdHk2Zk2bZp5FWgH/AjW99HOoT3zsHHjRnf77be7t99+202ZMsXa4quvvtqmbG7bts0dFXRXv35929YvsI88u+zn0U66jeuPGDHCPG20uUc7UhZ7gZZMnjzZPApcD6x1vxL4qHUuCjcNDzgnn6j1oz13uyjbt28PbeVfeIAvueQSe7A9cIVu2LDBXXHFFdbI8sr/NMJ+BHcg5x1xoANF1Cf/47o6agXaw8FDwbESaXzUeg990n/w0LK/uG65Jgg3rjaOZd68ee5oz906XDROdFz27dsX+qS/4LkggRIJLhA3L5iKhpfrddlll9m1OGp1uA8//NDe8zO4OLku3F8863RSZs+e7erVq2dBoXXq1LEO2K5du0Kf8A+IH531jz76yDVt2tQSJBFsyPLpp5/atULwmBnBdaGz61foONHR4DpwXAgi55+Fzi3HwTxyOlNcI8Tcj7DvGBw83wTp8T/3GEYH6y+//HI7JnKScJ+hJ34m8ELu3UxM4+CCcKNhhdPbpWfld+jl0bBGjiMhHOx7vnz57H9uqO+++87W+xH2nYfA67HSEeGBQAzpuXN8NFoIIx0TBNDvkHELD8jQoUOtY0jj5DVaHCtizjg6lpYfQTiwMq666iqzvGmwgPsIaxZhZ4yWa4Q3xe8sWbLEde/e3bwKCxcutOeejHt0GLnv6DxiKfrxeiBonGPum7Fjx5r3g6x0dM55zmmraLMYT8ZbdfDgwdAn/c1XX33l1q9fb50o7i/2m/1H6DkerhEeOb/haQQWOQmreF2zZo0ZgnRQEG3uJ46DGQU89xyLnwm8kPMQIHA8JF5AAjcV4kJPN4hw03AzIYDAK8fCsfoZ9o/gkeeff97ED08D14VrgXhwfXj1e+8W8B5cd911rlq1aiZ+nrvd63RxXFwnPz7geA8QCdzpNLIIhIf3TPCMcD149fv1wPtBxkYaXDolZDzE24Zwe/cXx8H958dnnnuEa4LQIRB4ddhnOiRbt261bSKvB/eZ3+GYGO7YvHmza9Soka1jv712mOMAv7bB7CsdEYbG2rdvb14SPFh0uLiP2H/vOec+8zuBF3JONlYeD4rXIHkRlfSoggg3EfvuWRe88j8i6Fe4+dnPV1991XrhDAfQ6HpuKzpbPDxY6KzzM9xTjJsxlolbmoaJcUxcuhwjx+O55XjQ/Qb7yJAGIvHSSy9ZjAUWB14GrFiulXc9ePX79ShZsqRdi8aNG1vHCrAEuR4894gFzzzPh9f59RPslzcmXqNGDUtlWrVqVRMNxBDw7tB+8cpx+R08Pgwrce94hazYb66Ddxzgx3FlhJkOCPvKUAdeK4Y08CTS2eJ55z3uK55zrh1tgp8JvJDzkBAAhrsWNxVCQdALDw1CEkR4IHDhUjkHaIQ5lshxdL+BeBM4tWrVKnswSpcubZYgwwM8DAgIPWB6vYzN+hXuH69R9R5eHnz+p/gBgWKIHw0BY7Z+TOTBeef8Y23gKuR/OhyIHNcDAWdsFk/D3r17LQDLr3gWHY0r18OzlFjKlCljY/7cX4zFIhp+DG5ln7HEGY5hH9l32i1ecd3yytg+z9COHTus4+J3cDfTzlaqVMnuL46B54PrgPeKwk9cM47Pb9AR51zT4WUfWbgerGeIlucEjw+dRJ5zniW28TOBz+zGDUSDiujhSqSBIvgNi4per9+tciwLIlcJhKFHiIjzsNPwLlu2zG64BQsWmKu6QoUKvhRzxA9X7pNPPmnjrogFAkFnioech54Hm8YKK4QAEq8X7ze4hxBrOk9YtNxLPNCIIqLNNUEAsXhxxxGxzjizn+CeZ1iDwCMsWOIT6EBR0YnGlk4Vx8Y14nnB68D2fgTLiGeE2QOIBPcZ5x+PD6JNgSGeG6LW+b9KlSq+E3NPuLkG7CuWLO0VolG+fHnrKHKfedeFAD6GdvwKgsf+c865p+igcIw87zw3GFW8T1tFG0wnxk+wryxerAXPAftNp4M2luvBfYZ1jieOSoE8N1xDvxIXKVq5KAS90ADzsCPiiEUQLHKCeGikaLB4EBBFPAzcONxM9Ah5IBgf5Bj92DPEQqV3zr56wSE0VggIVhMWIO/hMWGKDSUb/eiSBq4D4sDiRaTTsCKKdFC8aTVYWYwNcjx+fsABi5UFSw/B5hi5HjS43GutWrXypUsa8I4gCnR2aXDxjNCwetHRW7ZssetBG8B1wnry4/Vgn+i80mGnU0tni7F/XO2ICfcVQs891rp1a99eD2B/ETmuDVUmPS8J+45Hgc4I2xD5TUeF9/0EbSjDsVwTOom7d++2tor7h44gx+J1rNCQtm3b2vVivV9RilYhhBAiwAR+jFwIIYTIzEjIhRBCiAAjIRdCCCECjIRcCCGECDASciGEECLAKGpdiADBVD8qsTFdxpvW4023ZCpcWsMcbiqq3XrrrYHIeCVEZkAWuRABgnnUZNBjDjXJK1jIlEcGt1jA/N/j9e1JVkSyEr/mARAiMyKLXIgAQWIXyl2SRAgxj4R0pSRFogIV1edIfEHyHTLS8ZiTvYrkFySEIXEP2QLpAHhZ3kiHSkIiEq6Q4IdMfCTNYGE78lHzN0VLSJJBFkKyDvJbZMMiwxdlUcl4J4RIP+Iis5sQmQUEk+py5OL3UnqSQpbiFdR5x+3N37jAEXXc72RvI3c06WXJHkYubLLWkWsa8Z07d64bN26cCT6uez4TKdB0GkhVSV5tsvRRiaxNmzaWjpcMeGT5IrUtGcvoDJA9DsEXQqQPcq0LETBwf1OcBuFmIUUpogxYyeRXv++++yyF7OzZs82KnzVrlqXORdTJf43gkmuaTgDfhyV+8803u7vvvttEH7C6u3XrZmlP+Y6kKFu2rKVLJdUoKTvZL+oDCCHSDwm5EAGC4DLGp/v06eNeeOEFW6injIUOFHAhTz/b4HqnSAeiTQ5s8krPnDnTrG+KpWCNI76MeyPIFB/CHc97fB/FLshJTQ7tpAqR0Amgg0CZ1FGjRpkHAMucnPpCiPRDQi5EHOEJPa+IMiLO+DhiTTGOwYMHuzFjxrjx48e7vn37mlizbWSVQAp24FInsI7Pe39Hw5g84+50JF577TXXrl07G0tPalshRNohIRcigOAK9xaEFvf48SC6nYpOLIyDf/HFFxbglhRY9ATFsbAdrnbKz0ZPNcOa92qdU0mNimqMlwsh0hcJuRABAusaIb7xxhutjjhL165drTzm8bj++utd/vz53cCBA23OOVb0O++8E3r3WJo1a+bOO+88N2DAABsjp5wunyWILhLG2gl4e+ihh9wdd9xhHQPPxS+ESD80/UyIAIHlzRi2VwMacIUzvo0bnKll2bNnt/cQfKLXmY5GFDlBaASt4frG7Y4I4wpnrJtodMbX+Rzfw9g6n2d7BJ8Idsbj+R4i36mNz9/ednwfn/X2xc/1tIWINyTkQohjQJhffvlls8Rx29MxIAK+cePGf3OvCyEyHgm5EOIYsMgZS8fapnkgHSxJaIhgF0L4Dwm5EEIIEWAU7CaEEEIEGAm5EEIIEWAk5EIIIUSAkZALIYQQAUZCLoQQQgQYCbkQQggRYCTkQgghRICRkAshhBABRkIuhBBCBBgJuRBCCBFgJORCCCFEgJGQCyGEEIHFuf8P/UBrfrBN6XsAAAAASUVORK5CYII=;" parent="1" vertex="1">
          <mxGeometry x="600" y="470" width="333.78" height="250" as="geometry" />
        </mxCell>
        <mxCell id="w7AhATVy-vMS33P31Dev-1" value="" style="shape=image;verticalLabelPosition=bottom;labelBackgroundColor=default;verticalAlign=top;aspect=fixed;imageAspect=0;image=data:image/png,iVBORw0KGgoAAAANSUhEUgAAAfgAAAFoCAYAAAC7Tuk8AAAAOXRFWHRTb2Z0d2FyZQBNYXRwbG90bGliIHZlcnNpb24zLjMuNCwgaHR0cHM6Ly9tYXRwbG90bGliLm9yZy8QVMy6AAAACXBIWXMAAAsTAAALEwEAmpwYAAA0cElEQVR4nO3dfZwVdf3//8cTRFkUAREzUNQwMUsLW3/6+WilWaF8skwr08qLPklqlpUfUvpmmlpaVGaRGV5HaloRaVnrRVppaWKUeIVdabqkIrEquiji6/fHvFeH49nds3DOnN3Z5/12m9vOvN8z73nN7Nl9nZl5z4wiAjMzMyuXIc0OwMzMzOrPCd7MzKyEnODNzMxKyAnezMyshJzgzczMSsgJ3szMrISc4M3MzErICd7MzKyEnODNzMxKyAnezMyshJzgzczMSsgJ3szMrISc4M3MzErICd7MzKyEnODNzMxKyAnezMyshJzgzczMSsgJ3szMrISc4M3MzErICd7MzKyEnODNzMxKyAnezMyshJzgzczMSsgJ3szMrISc4A0ASdtIOkvS1ZIulHSBpHMkvUfSRc2Or1aSXinpc5L+JmnPtWzjd5IekXSdpF9J+o+klWn8Wkn/lBSSRtc1+AJImiDpYUnvqkNb+0hamvbHxyWtL+nAdWhvfUkHSboj7d82SRen4ZI0HZLesK6x14ukd6X9OaHZsawNSa+QdKKkv67t34v1X+s1OwBrvvRPeQ7wf8BnIiJS+ehU/pbmRddnAawCJq1DG0uAfSNiBYCkm4BtI2KfND0EuHwd42yWJ4DrgQfq0NYk4A3AJ4EvA6cCh65tYxHxHHCFpLHAzsCsiLg+P4+k09c62sZ4ALgB6GhuGC+RtHNE/KnG2YcAArZtYEjWJD6CH+Qk7QJcBpwdERd1JXeAiOgAPgQ81KTw+iwiHgHuWMdmLu9K7t2s4wXgLOD5dVxP4SJiRUQcHhF31qG58yKiPSJOADYBXhkRv6hDu8/0UPcDYGUd1lEXEXFnRBwWEU83OxbIzmABX6h1/oj4N/DHxkVkzeQjePsG2Re9s6tVRsRzkr4haURE9PSPtz95YV0Wjoj5Ncxz67qsowzSEXfX+GpgdQHrvK/R6xioJI0Dfg481cdFG/57s+bwEfwgJulVwB7Agoh4orv5IuKyiHhG0gclLZH0QFp+Q0mfkLRa0sWpbCdJZ0t6XNKrJd0t6T5Jh0nqSNdQj8zFMFXSMkkfTtO7S/qRpC9Kul7SVZI272U7XpGu035b0lzguCrz7Czpm5K+L+muFOOItdht+Ta729aWnrZD0pQU6zJJo1LsKyT9KX8tV9LbJX1d0lck3S9pQcV6l0naSNL3JC1P636jsv4UbZI6Jd2ajuqQtLGkY9J6Du9tPTXU9fq7kjRd0neV9ee4PV3vXav/O5I+ImnrNL6RpNMkPZc+U/um7futpNsk7SpphKRDJd0o6QuSDpf0kLJ+A2dL2iDX9ri0jd+VtEDS/LQflT6jV6R9+m5Jj0maK2mrFMPDkrbOzXtlmndbZf02Vki6QdIYSW+VtCj9bubm90UPMQyRNE3Sj1O720u6SdIzaV1DUzufBl4JbCfpXEmHpXbfJemHkk6XdEta74Zr8zuwASYiPAzSAfgfsmvWP+nDMt8HHqgo+xdwcRqfDFyd2v0c8D7gPLIvk59M5ZNzy04Evp3GW4AngelpemPgOeDMHuIZAdwNHJYruyitZ880vT1wBaA0PYnsOv05NW7zTcDDVcq729YNe9oOYDzZZZEAPk92/XNn4FngW2me9YB/5tY1Bvh5Gn91br2fBl4D7AAsBf4CzAS2AlrJTnd3tbkpcHha7vAa1tNTXa+/K+BE4Krc9HZpG7/Wy/7uivFq4Nw0XEN2pLl1xbzHdm0PMAr4FbBxqhsF7JnqbwKmA6/LfT5OS/MNB9qAMRWfqbuBocAbgYeBvwNHATPI+qtMBM5JbW1N9hl/A1kfjvuBj6Xf9YFpnquAI4FxKZYADqghBqXf5z9TDMcBm6VYXmwj91m9KTe9FdmlpHfk/hYCOCo3T9c+2rPZ/5M81HdoegAemvjLh4PTH/blfVjmYl6e4B8gJfg0fWpqd1TFfBsCy4GzcmWnA9ul8aFkCfJVaXo48ChwQQ/xzAQeJyXvVLYPayb4C8lOXZ6SG64FLq1xm2+iSoLvbltr2Y7cckNyZQuAa9P4GLJLDV8A1k9le1Xst6iI5Yoqv5s/dLWZprdlzQTf7Xp6qetxG4HRZF8uDqmI53tkX6626mF/H55ifFtF+XlUJPhUfg2wDPgh8NqKOqW28l88NiD7UvpEmj4UuKvi83Fl+r2PS/P8FlhYZd0fTe1vnSu7mVySTWWPsubfyAZpuc/1MYbf5trYKN9G7rN6U256DNkXmtG56QBOys2zJ07wpRx8DX5wezD9HF/ndl8AiIrT/hHxtKTzgI9J+gLZEd+WEXF/ql8NHCnptZJOAzrJ/kEP7WFd7wYejPSfKqnshLULcFlEnLEuG9WNl21rjdvRtVy+v8AKYP1UvjwtewowXdLZwOzcvNU6+HVWKXu2q81qy/W0nl7qetvGPciO8jsq4vkD2dFrKy99/mr1o27KP0KWHMdGxN0V2xeSIPeZiIhnJd0AHJ4uKewCtEfEKT2s+wWyOxAqVfs99Pq7STHAS7+bWmPIt7Gioo2XiYjlwBGSdlN2a+R/UlVPf1NWEr4GP7jdTnZksaukkT3NKKleXwa/TXb68X+Bg8iOOvPrOZ3siPErEfFleu5RDTCSrAd3T4YBu1YWKuuU1BBrsR0vExEnk50e/gvwVeAPklrqGmgv6+mprpdtVPpZ+eXx3+nnqrWI89qIeKBK1RiyBP82SR+ssblH08+VZJ+PN+SvycOL1/nrvr+70ZAY0vX5C4FDgJMj4mvrGKcNIE7wg1hErCI7OtuA7FpwVZKOILvmB9kRYeU/nCHU+FmKiIeAecAnyE6l/zK3nrcC/w84NXq4Ta3CPcBESTtUqeuK6U7gXZLenFvXULJrmHW3lttR2cYmkvaKiIUR8T9k13F3IttnddPTenqp620bF5CdoZlaUb4p2dHsb9Yh5o9IGp7GRwBfJOtP8gNgtqQtqyxWecQ6AfhzZLeC3kn2+Z5RMc8nyE5dF6FeMVTOexhwBDAz/b3bIOIEP8hFxLlk93R/VtJXJY3pqlPWC/l44O8RsSQV3w9sJukQZb3BTya7tr69pO3TPEPS8sO7We03gVcBt1WcWu/64nCEpEmSPkV2LXe8pGndtPWV9HNu6rU8HHhnKttFWa/0r5IdMf4y9VI+muy67Y097Jq8EWmoptq21rIdw9JylX+DXWdK1gdOk9R1+nU+2enV+/PzpS8q+Vgq26u8NNDVfldZT+vpqa67bdxc0tTI7q8+C3i3pDemWAV8kOxIstu7Nsiu50PaR2tsjLQHsHtEdJ1y/xbZl4ynyZLhSrLPQuV+2DnXxmbAfmT9NwDmkl0uOE3SDyR9TNIc4IXceobk4sqr3J9dZZVfKNb43aR9kV+ulhiGUf1/dv7s2lPANsruzngXL/2ejpS0naTPkX0J2FLS1Irlfdq+bJrdCcBD/xjIjgyvJut89Eey651fJ3uCW36+jYHryI7CrgY2J+vpezGwO/B2stOlQfYUvG26Wd91vLwT3npkHYtWALeQ/VO+DGgH9ukh9ncD96XlfgUcQ9bb+ERgszTPnmm7VgKLgHfWsE8mkfVSfzZtz6nAG3L1Vbe1t+0gezLg3Wm5L5AduR1Kdo33KbKjrs1T/X1kX1C+DbwvtZ9f/uS0/IFkvbefJ0t0o8mudT+ZhsPIbqH6blruRuD1vaynp7rutvFB4M1pniFkdxfcTdbR6yLgyB729/opzq59ehfZ5+pisrs3riXrSb9fmvdcsjsH/r+0/LZkR8JB9vl9dSoP4Ndkz3z4Ellv9ndXrHsr4GfA02kbZvLSU94+mrZzFdkR9oi0zOvJzkQE8J20fw9LbTzFSz37j0txP0R2p8VmKY5I8b6lpxhS3aGp/MnU7mZkZ1CC7PO8Z5pvb+AR4M9kdy1sTPakvafIzpZNSr+v+8kuvWwL/Di3z3Zs9v8iD/Ubum4bMjMrJUkBfDF67sBmVjo+RW9mZlZCTvBmVlq5uz9edj3frOyc4M2slCRtA5yWJg+UtF8z4zErmq/Bm5mZlZCP4M3MzEpoUD+qdtNNN42tt9662WGYmVk/cscddzweEQ170mVRBnWC33rrrVmwYEHvM5qZ2aAhqa/vSeiXfIrezMyshJzgzczMSsgJ3szMrISc4M3MzErICd7MzKyEnODNzMxKyAnezMyshJzgzczMSmhAPuhG0puBkyNi74ry7YCDgGeAqyPi/kbGMX9hO7PaFrOko5Pxo1uYMXUy+0+Z0MhVmpmZ1WRAJviI+K2klipVZwPvA1YBlwMHNCqG+QvbmTlvEZ2rVgPQ3tHJzHmLAJzkzcys6QbyKfrn8hMp4U+KiBUR8SywTe5d0HU3q23xi8m9S+eq1cxqW9yoVZqZmdVsICf4SmOAJ3PTzwMve1mApOmSFkhasHTp0rVe2ZKOzj6Vm5mZFalMCX4ZMDw3PQLoqJwpIuZERGtEtI4bt/YvCxo/utoVgu7LzczMijTgE7wyo9Jp+QcljZA0HHgoIhp2OD1j6mRahg1do6xl2FBmTJ3cqFWamZnVbEB2spO0IzBJ0uuAocCJwMHACcBngWeBzzQyhq6OdO5Fb2Zm/ZEiotkxNE1ra2v4ffBmZpYn6Y6IaG12HOtqwJ+iNzMzs5dzgjczMyshJ3gzM7MScoI3MzMrISd4MzOzEnKCNzMzKyEneDMzsxJygjczMyshJ3gzM7MSasqjaiUNAV5B9sa3x2MwP07PzMysAQo7gpc0WtLnJN1O9i73h4FHgKckXSfpQynxm5mZ2Toq5Ahe0seAM4HHgXuA3wMrUvXGwLbALOBzkj4YEQuLiMvMzKysGp7gJZ0FbAC8ISIe7GXe3YCZkr4XETc0OjYzM7OyaugpcUmHANdFxDG9JXeAiLg1It4PvFbSFo2MzczMrMwafc37sYi4preZJCk/HRHfArZuVFBmZmZl19AEHxHX1zjrayTtXbHszQ0IyczMbFBo6DV4Sb8C1u9ltiHANsBtgK+7m5mZ1UGjT9E/SdZDfiggYAtgD6AlTQuIFMfoBsdiZmY2aDS6F/0FwBci4j4AST8C9omIf+RnkvR64H8aHIuZmdmg0ehr8G1dyT15qDK5J/cAhzUyFjMzs8Gk6CfHbSGp2lmDjwGbFxyLmZlZaRX9LPqfAX+RdA7wALAJsA9wEPCDgmMxMzMrrUITfERcKmkY8HWyTnVd979fDXyiyFjMzMzKrPC3yUXExZKuBN4EjATuiYh7io7DzMyszBp9H3xrRCyoLI+IZ4C2XpZ9Q0T8uZu644HHgFERMTtX/lZgErAdcElE3LUO4ZuZmQ1Yje5kN0XSq/u6kKTpwBPd1O0BjI2IucAYSbumcgGfj4jzgK8Cs6stb2ZmNhg0OsGfD5wg6RhJw3ubWdJESXOBRyPin93MNg24N43fk6YBNksDEbEUmFT5jHszM7PBoqGn6CMi0rvgzwCWSroFWAS0A0+TPcZ2FNmjat8IbAoc0stz6DcFlqfxlbx0e90yYKykLYFHgFUREZULp7MD0wEmTpy4bhtoZmbWTzW8k11ErAY+K+n7wP8BHyVL6nl3ApcCsyOis5cmlwIj0vhIssRORDyfXk/7WbIvEL/rJp45wByA1tbWl30BMDMzK4PCetGnDm+Hp9Pmk4BxwDNkT7f7Tx+augbYF7gS2AFokzQqIp6IiBuBGyXNBj5X3y0wMzMbOBrdi/6TafTuiLgBstP2wN/S0GcRcYukvSQdAXSk4VzgYEl7kp3uPysi2tcpeDMzswFMVS5T169x6XngXRFxTcNWsg5aW1tjwYKX3cVnZmaDmKQ7IqK12XGsq0b3ol/QX5O7mZlZmTU6wdd8bV3SexoZiJmZ2WDS6E52YyXtxUvPnO/OCODjwE8bHI+Zmdmg0OgEvwtwfQ3zCfAta2ZmZnXS6AR/F9mb43qzIXBkg2MxMzMbNBqd4Nsj4pJaZpS0rMGxmJmZDRqN7mS3YR/m/UnDojAzMxtkGp3gd5X0tlpmjIjnGxyLmZnZoNHoBH80sIOkdzV4PWZmZpbT6LfJXdjI9s3MzKy6Rh/Bm5mZWRM4wZuZmZWQE7yZmVkJ9YsEL+ntkqY0Ow4zM7OyaPSDbtYgqQX4MDAOGJqr2hJ4E7B9kfGYmZmVVaEJHvge8KEq5QH8vuBYzMzMSqvoU/SvAl4DjAVmRMSQiBgCfB44tOBYzMzMSqvoBH9jRCyOiOXAJpK6TtP/GJhdcCxmZmalVXSC31bS3pI2Bq4Cvp6uy08D9ig4FjMzs9IqOsFfDvwKOCsibgM2BlYA3wD+WHAsZmZmpVVoJ7uIuErSJODJVPRR4GZgODC3yFjMzMzKrPD74CPiXxHRkcZfSM+rv56s852ZmZnVQUOP4CWdx5r3u1czhOz+97vxaXozM7O6aPQp+i2ANwOPAy8AG5HdIvcosDI33ybAhg2OxczMbNBodIK/ADghIu4EkHQZcG5E/DY/k6S3ANs2OBYzM7NBo9EJfj5rXud/rDK5JzeT3Qd/QS2NSjoeeAwYFRGzc+XvITtDAPBMRFy2NkGbmZkNdA3tZBcRz0fEc7micd3MeiCwTS1tStoDGBsRc4ExknbNVR8XEedHxPnAR9YqaDMzsxIo+ln0t0u6Dvgm8ADZtfd9gE8B19XYxjTg3jR+T5q+LU3fIelUsofonFOXiEtg/sJ2ZrUtZklHJ+NHtzBj6mT2nzKh2WGZmVkDFX0f/DcljQZ+yku96wUsBI6usZlNgeVpfCWwea7uJOA8YBbwvmoLS5oOTAeYOHFiH6IfmOYvbGfmvEV0rloNQHtHJzPnLQJwkjczK7Fm3Ad/CjAJ+DhwAvBOYJeI+HeNTSwFRqTxkcCyXN2XgKOArwE/7Gb9cyKiNSJax43r7opBecxqW/xicu/SuWo1s9oWNykiMzMrQuEJHiAiHoqIcyPiaxFxDbC3pCk1Ln4NsFMa3wFokzQqTe8UEU9FxC+AYXUOe0Ba0tHZp3IzMyuHQk/RpxfLfJiss13+AThbAm8ie+BNjyLiFkl7SToC6EjDucDBwFmSPgG0k717ftAbP7qF9irJfPzoliZEY2ZmRSm6k933gA9VKQ/g97U2EhGnVxQdnMp/vvahldOMqZPXuAYP0DJsKDOmTm5iVGZm1mhFn6J/Fdkz58cCMyJiSEQMAT4PHFpwLIPC/lMmcMYBOzJhdAsCJoxu4YwDdnQHOzOzkiv6CP7GiFgMIGkTSUMjYjXwY7IH3fxPwfEMCvtPmeCEbmY2yBR9BL+tpL0lbUx2r/rX03X5acAeBcdiZmZWWkUn+MuBXwFnRcRtwMbACuAb+E1yZmZmdVP0g26ukjQJeDIVfZTsOfTDge8XGYuZmVmZFXoEL+nwiPhXRHQARMQLwA3AE8ABRcZiZmZWZkWfor9Q0uWSNuoqiIgHyU7bn1hwLGZmZqVVdIK/i6yn/AJJO3YVRsQy4NcFx2JmZlZaRSf4W4A3kr0k5lZJ/5ure676ImZmZtZXRSf4iIi/ArsClwLnSfq+pBG9LGdmZmZ9UPSDboYBRMSzwHRJN5I9vrYV+GfBsZiZmZVW0Ufw0yS9W9L6ABFxOVlyfw7Yp+BYzMzMSqvoI/hp6ae6CiLifkm7AmcWHIuZmVlpFf2gm790U/6spG8XGYuZmVmZNTTBS9oZeCQilqTpN3cz61DgY8AHGhmPmZnZYNHoI/irgeuAw9P0ecC2VeYT2TvhneDNzMzqoNEJ/l3AI7np88l60t8GPJ8rH0Z2BG9mZmZ10NAEHxF3VBRdDKwXEf+unFeSb5MzMzOrk6I72S3toXp4YYGYmZmVXKM72XXXqa7SUOAo4KAGhmNmZjZoNPoI/nxgUg3zdXWyMzMzszpodIK/gCx5/xFY3cN87mRnZmZWR41O8BcBQyLikd5mdCc7MzOz+ml0L/rHaplP0tuBxxsZi5mZ2WBSaC96SS3Ah4FxZB3rumwJvAnYvsh4zMzMyqrol818D/hQlfIAfl9rI5KOBx4DRkXE7Fx5G9mXhCB79/w26xaumZnZwFT062JfBbwGGAvMiIghETEE+DxwaC0NSNoDGBsRc4Ex6U10SBoJfCYitiJL8pc3YgPMzMwGgqIT/I0RsTgilgObSOo6Tf9jYHYPy+VNA+5N4/ekaSLiqYi4O5W/A7i2TjGbmZkNOEUn+G0l7S1pY+Aq4Ovpuvw0YI8a29gUWJ7GVwKbV5nnTcDvqi0sabqkBZIWLF3a04P1zMzMBq6iE/zlwK+AsyLiNmBjYAXwDbJ75WuxFBiRxkcCy/KVktYDVkdE1fvuI2JORLRGROu4cePWYhPMzMz6v6KfRX+VpEnAk6noo8DNZM+hn1tjM9cA+wJXAjsAbZJGRcQTqX4v4Mb6RW1mZjbwFH0ET0T8KyI60vgLEXFhRJwDvKXG5W8BVko6AuhIw7m5WfYCfl3PmM3MzAaaou+DHwFMJ+vlvn6uaihZYv55Le1ExOkVRQfn6j63jmGamZkNeEXfB/9jYB/gEeDZXLmo3lnOzMzM1kLRCX5PYN+IaKuskPSZgmMxMzMrraKvwf85DdVcUFwYZmZm5VZ0gj8aOKibuvcUGYiZmVmZFX2KvgM4QNL+FeVDgNcDFxccj5mZWSkVfQT/Y2A3sgfVqGIY2sNyZmZm1gdFH8FvB+wVEX+orEj3tZuZmVkdFH0E/0ugvZu6HxcZiJmZWZkVneA/CezXTd2HiwzEzMyszIo+RX8D8ApJx1eUDwXGA+cUHI/1E/MXtjOrbTFLOjoZP7qFGVMns/+UCc0Oy8xswCo6wd8O7ET2Pvfnc+XDgLcWHIv1E/MXtjNz3iI6V2UvAGzv6GTmvEUATvJmZmup6AR/PrA8Iu6trJD0zoJjsX5iVtviF5N7l85Vq5nVttgJ3sxsLRV9Df7LwGHVKiKiphfNWPks6ejsU7mZmfWu6AS/NXB/tQpJY4sNxfqL8aNb+lRuZma9KzrBfwAYI6naej9dcCzWT8yYOpmWYWs+56hl2FBmTJ3cpIjMzAa+oq/BzwFeAXxW0tO58uGp/PMFx2P9QNd1dveiNzOrn6IT/B/Jnjl/D/BCrnwo7kU/qO0/ZYITuplZHRWd4C8AVkTEosoKSQcWHIuZmVlpFZrgu55BL2kDYAdgVUTclep+UmQsZmZmZVZ0JzskHQM8AiwA/iLpAR+9m5mZ1VehR/CSPgLMBq4F/gD8GxgHnCRpVURcVWQ8ZmZmZVX0NfijyF4X+5t8oaRZwPcAJ3gzM7M6KPoU/Z8rkztARDwHPFtwLGZmZqVVdIJ/ulqhpInAfxUci5mZWWkVfYr+UUlnA5cDHWSviJ0K/C9wYa2NpNfNPgaMiojZFXXbA28C7urqtW9mZjbYFH0E/1VgA+D3wN3AdcCM9LOmp9hJ2gMYGxFzyR57u2uubjJwZESc5+RuZmaDWaEJPiJeiIijgNcAx6WhNSIOTtfhazGN7H3ykD0Rb1qu7lvAg5LOTl8EzMzMBqWiT9EDEBGLgcX5MknvrPGVsZsCy9P4SmDztPyGZG+rmw1sAdwmaavKLw6SpgPTASZOnLgOW2FmZtZ/FX0f/IbAkcD2wPoVcewF1JLglwIj0vhIYFkaXx/ojIgXgH9JWkKW/P+VXzgi5pC99IbW1tZYuy0xMzPr34o+gv8Z2UtllgErKuo2q7GNa4B9gSvJHnfbJmlURCyX9KykjSJiBdkXgfY6xW1mZjagFN3JbjdgWkSMi4ht8gPwqVoaiIhbgJWSjiDrid8BnJuqjwVOlnQw8JWIWF3vDTAzMxsIij6Cvx64s5u6H9XaSEScXlF0cCq/Hbh97UIzMzMrj6KP4I8GPtRN3fuLDMTMzKzMij6CvxbYPL1R7oVc+RCyh96cU3A8ZmZmpVR0gr8d2Bb4J2sm+PXJetGbmZlZHRSd4C8C/hkRD1dWSHpnwbGYmZmVVqEJPiJ+10NdLffAm5mZWQ2K7mRnZmZmBXCCNzMzKyEneDMzsxJygjczMyuhwt8mJ2kE2WtidwNWAb8A5kbE80XHYmZmVlZFv01uC+B3wFbAarIXwrwTOFbSWyPiiSLjMeur+QvbmdW2mCUdnYwf3cKMqZPZf8qEZodlZvYyRZ+inwX8FfhvYHhEjAdaUvlpBcdi1ifzF7Yzc94i2js6CaC9o5OZ8xYxf6FfWmhm/U/RCX4csE9E3Nr1prfI/LDgOMz6bFbbYjpXrfmCws5Vq5nVtrhJEZmZda/oBP+niHihm7ptC43ErI+WdHT2qdzMrJmKTvCbSBqfL5A0WtLXgJEFx2LWJ+NHt/Sp3MysmYruRf8t4E+S/gx0kL1BrjXVvb3gWMz6ZMbUycyct2iN0/Qtw4YyY+rkJkZlZlZdoUfwEXEnsAewHNgb2AG4HtgtIm4pMhazvtp/ygTOOGBHJoxuQcCE0S2cccCO7kVvZv1S4ffBR8TfgIPzZZJ8/d0GhP2nTHBCN7MBoaFH8JIm1jjrWElfamQsZmZmg0mjT9GPlTSna0LSfpKWSFolaXXXAPweOLbBsZiZmQ0ajT5Fvww4XNInIuJZsofZ/AZ4DNga+BMgsg52PoI3MzOrk0Yn+C8A96XkDnBbRHwMQNLpEfHFNP5HYFKDYzEzMxs0Gn2K/v3A6bnp5bnxRyXtlMb/ARzf4FjMzMwGjUYfwd8F/DE3PVbSzcAc4CLgN5KuB/Yleya9mZmZ1UGjj+DfAewsqeuLxPHAvQARsQL4JPABYHPg0w2OxczMbNBo6BF8SuLzctNPAkfmpm8he3Vsn0g6nqyj3qiImF1RN5/sXfNXR8SRVRY3MzMrvUKfZCdphzSMT9N7SvqppC9JGlZjG3sAYyNiLjBG0q65ul2A70bE5k7uZmY2mBX9spm7yE7Lt0h6NXANsB2wEXBGjW1MI53mB+5J0132As6XdImkEfUJ2czMbOApOsFfHRFHRcTfgZOA54C9I+I44Oka29iUl3rjryS7fg9ARHwV2AZ4HDix2sKSpktaIGnB0qVL13IzzMzM+reiE/wCePERtgcBZ0fEI6lufLdLrWkp0HV0PpLsYToviojngRPIEv3LRMSciGiNiNZx48b1MXwzM7OBoegEP1bSfsClZEfhXwOQNIWsN30trgG67p/fAWiTNCq1o1Q+Eri5XkGbmZkNNEUn+FOBqWSn0N8ZEU9JOpDsiXc1JeTU836lpCPI3infAZybqm+WNBs4ADi/vqGbmZkNHIqIZsfQNK2trbFgwYJmh2FmZv2IpDsiorXZcayrAXebnJmZmfVuIN4mZ2ZmZr1o9LPoK10dEUcBSPo+L90m94ikLxYci5mZWWkNxNvkzMzMrBcD8TY5MzMz68WAu03OzMzMelfoNfiI+A9wbEXZT4CfFBmHWdnNX9jOrLbFLOnoZPzoFmZMncz+UyY0OywzK1DRR/DdknRws2MwK4P5C9uZOW8R7R2dBNDe0cnMeYuYv7C92aGZWYEaegQv6VLg9xHxnTT9S2CDKrMOBd4AXN7IeMwGg1lti+lctXqNss5Vq5nVtthH8WaDSKOP4FUx/QTZfe/DUl3XMKSAWMwGhSUdnX0qN7NyaugRfEQcUlF0HvDliLizcl5JlfOa2VoYP7qF9irJfPzoliZEY2bNUuhRc0TcUC25JzcVGYtZWc2YOpmWYUPXKGsZNpQZUyc3KSIza4ain2TX9UrXVwDr54qHAsdT0cPezPqu6zq7e9GbDW6FJnhJ7wO+C4zpZhYneLM62H/KBCd0s0Gu6CP4bwN3kN33/myufAhwaMGxmJmZlVbRCX4ocHB64M0aJC0uOBYzM7PSKvrWtHOBHbqpe7LIQMzMzMqs6CP4k4HTJVV+sRgCHIVfOGNmZlYXRSf4GcCJwAkV5QICJ3gzM7O6KDrBzwSuBC4G8k/iGAocXXAsZmZmpVV0gn8MOKabTnaPFhyLmZlZaRXdye4UYLdu6kYUGIeZmVmpFX0EPww4RNKmFeVDgQ8Cbys4HjMzs1IqOsEfR/Za2GovloliQzEzMyuvohP8BcDTwO+A53Plw8ieRW9mZmZ1UHSCvxQYFhFLKysknV5rI5KOJ+uwNyoiZlepvwCYGxE3rUOsZmZmA1bRnezGA+MkjQeQtKekn0r6MlnC7pWkPYCxETEXGCNp14r6/YCN6hy3mTXA/IXt7H7mr9nmxF+w+5m/Zv7C9maHZFYaRSf4u4BPAi2SXg1cA2wHbAicUWMb04B70/g9aRoASduQnZW4t8pyZtaPzF/Yzsx5i2jv6CSA9o5OZs5b5CRvVidFJ/irI+KoiPg7cBLwHLB3RBxHdm2+FpsCy9P4SmBzAEnrAftGxE97WljSdEkLJC1YuvRlVwrMrCCz2hbTuWr1GmWdq1Yzq83vnTKrh6IT/AIASROBg4CzI+KRVDe+xjaW8tI98yOBZWn8zcCHJN0EHA58U9LLXogdEXMiojUiWseNG7dWG2Fm625JR2efys2sb4pO8GPTNfJLyY7CvwYgaQq1P4f+GmCnNL4D0CZpVET8OiL+OyL2JHsU7qciwuf6zPqp8aNb+lRuZn1TdII/FZgKPA68MyKeknQg8AXg5loaiIhbgJWSjgA60nBuQ6I1s4aZMXUyLcOGrlHWMmwoM6ZOblJEZuWiiP7xfBlJW0TEw0Wus7W1NRYsWFDkKs0sZ/7Cdma1LWZJRyfjR7cwY+pk9p/ysitrZoWSdEdEtDY7jnVV9H3wSBLwCmD9ijg+AxxbdDxm1jz7T5nghG7WIIUmeEmHAN8GRldWkT2q1gnezMysDoo+gj8b+BMwH1iRKxfVn09vZmZma6HoBP80cFA374NfVHAsZmZmpdWMXvS7dFNXdCxmZmalVfQR/GrgKEmvBF7IlQ8hex/82wuOx8zMrJSKTvCfAl4PvLtKXf+4X8/MzKwEik7wFwF/J3tJTP4Ifn2y2+TMzMysDopO8HOBIRGxLF8o6bXAlwqOxczMrLQK7dgWEcsrk3syAji+yFjMzMzKrNAEL2k/SUskrZK0umsAbgX+t8hYzMzMyqzoU/SnAb8BHgO2Jnvojch6z/sUvZn1O35evg1URSf42yLiYwCSTo+IL6bxPwKTCo7FzKxH8xe2M3PeIjpXrQagvaOTmfOyZ3I5yVt/V/TDZZbnxh+V1PVe93/ga/Bm1s/Malv8YnLv0rlqNbPaFjcpIrPaFX0EP1bSzcAcslvmfiPpemBfoKXgWMzMerSko7NP5Wb9SdFH8McD9wJExArgk8AHgM2BTxcci5lZj8aPrn7c0V25WX9SdILfHTgnIr4PEBG3RMRWEbFZRFxWcCxmZj2aMXUyLcOGrlHWMmwoM6ZOblJEZrUrOsH/EDi64HWama2V/adM4IwDdmTC6BYETBjdwhkH7OgOdjYgFH0N/kqyJP8ykt4REdcWHI+ZWY/2nzLBCd0GpKIT/B+AE9KjaZ/IlQ8HjgGc4M3MzOqg6AT/cWAK1V8L67fJmZmZ1UnRCf5C4BngJtZ8m9xQ4LMFx2JmZlZaDU3wkj6ZRu+OiBuAS4ENIuLRKvOe0chYzMzMBpNG96L/BvC3lNyJiI5qyT3VPdjgWMzMzAaNRif4BRFxTYPXYWZmZhUaneD/U+uMkt7Th3mPl/RhScdWlH9QUpukGyX5UVNmZjZoNbqT3VhJe5G9ErYnI8h62P+0twYl7QGMjYivSzpJ0q4RcVuq/lNEXCppDvBq4M51Cd7MbKDwa22tUqMT/C7A9TXMJ2q/TW4a6Xn2wD1p+jaAiLhXkoD7gbv6FqqZ2cDk19paNY1O8HcBX69hvg2BI2tsc1Neeu3sSrIX1eQdA/wf8DtS4s+TNB2YDjBx4sQaV2lm1n/19FpbJ/jBq9EJvj0iLqllRknLamxzKdkpfYCRwBrLRcR3JC0FDqVKgo+IOWSvq6W1tdUP1zGzAc+vtbVqGt3JbsM+zPuTGue7Btgpje8AtEkaVTHPP4C7+7BuM7MBy6+1tWoaneB3lfS2WmaMiOdrnO8WYKWkI4CONJwraWTqPf9xsi8A561dyGZmA4tfa2vVNPoU/dHADpJGRMRV9Wo0Ik6vKDo4/dyrXuswMxsouq6zuxe95TU0wUfEhY1s38zMMn6trVVq9Cl6MzMzawIneDMzsxJygjczMyshJ3gzM7MSanQvejMzsxf5mfnFcYI3M7NC+Jn5xfIpejMzK0RPz8y3+nOCNzOzQviZ+cVygjczs0L4mfnFcoI3M7NCNOqZ+fMXtrP7mb9mmxN/we5n/pr5C9vXqb2ycCc7MzMrRCOeme+Oe91zgjczs8LU+5n5PXXcG+wJ3qfozcxswHLHve45wZuZ2YDljnvdc4I3M7MBq1Ed98rA1+DNzGzAakTHvbJwgjczswGt3h33ysKn6M3MzErICd7MzKyEnODNzMxKyAnezMyshJzgzczMSsgJ3szMrISc4M3MzEpIEdHsGJpG0lLgwTo0tSnweB3aGUy8z/rO+2zteL/13WDfZ1tFxLhmB7GuBnWCrxdJCyKitdlxDCTeZ33nfbZ2vN/6zvusHHyK3szMrISc4M3MzErICb4+5jQ7gAHI+6zvvM/Wjvdb33mflYCvwZuZmZWQj+DNzMxKyAnezMyshJzg+0jS8ZI+LOnYivLtJJ2U6rdrVnz9UXf7LNXNl/SIpPOaEVt/JenNkm6oUu7PWQ+622+pzp+1CpJGSvqRpH9IOqeizp+1Ac4Jvg8k7QGMjYi5wBhJu+aqzwbOAmYDZzYjvv6op30maRfguxGxeUQc2bQg+6GI+C3QUqXKn7MedLff/Fnr1m7A4cDrgL3Tfuriz9oA5wTfN9OAe9P4PWkaSS3ApIhYERHPAttIWq9JMfY3VfdZshdwvqRLJI0oPLL+77n8hD9nNXuuSpk/a1VExHUR8XREPAPcBTwC/qyVhRN832wKLE/jK4HN0/gY4MncfM8DA/4xh3XS3T4jIr4KbEP2SMwTiw9twPHnbC35s9YzSSOBf0XEQ6nIn7UScILvm6VA17f/kcCyNL4MGJ6bbwTQUVxY/Vp3+wyAiHgeOIHsn6/1zJ+zdeDPWo8+DHwhN+3PWgk4wffNNcBOaXwHoE3SqHQK60FJIyQNBx6KiM6mRdm/VN1nAJKUykcCNzchtgFBGX/O+qhrv3WNp2J/1ipI2h+YHxFPSXqFP2vl4Qfd9JGkzwPtZKewbgBOjIiDJb0OeC/wLPCziLiniWH2Kz3ss1uAhWm4OCJWNzHMfkXSjmRfjvYFhuLPWU162G/+rFUh6RhgBtkR+/rABcBu/qyVgxO8mZlZCfkUvZmZWQk5wZuZmZWQE7yZmVkJOcGbmZmVkBO8mZlZCTnBW2lI2im9HCMkPSrp4txwmaSHJM1vdpz9Wbrv+QhJN0s6udnx9JWkXSWd1MD23yXpVkkPSvpm7v56s37Hzxa20oiIO4E7JX0C+GtEHJ6vlzQO+EozYhtA1gP+AewOXN/kWNbGB4FvNrD9bSNiN0mbAQ8AFwN/buD6zNaaj+CtjJ6pVhgRS4GrC45lQImIJ4HfNTuOtZFehrJFRPyjUeuIiG+k0aeBh4HFjVqX2bpygrdBJSJ+2uwY+ruIeKHZMaylqcB1Ba3rZOAQP77V+jMneBsUJA1Lj8zNl+0s6WxJX5J0h6THU/mOks6StFTSZpJ+LunpNM/uFW0clNr4iaR7JB2dq9tG0rcknSrpptQ3YKOe6iS9RdJv0/TWad4DJf1L0gNp+pWSTpR0v6Rpkq6S9J+0PVtIulTS6enn7ZL+q5d9s16a/2JJ35F0UY37tOq2p/hmSvqrpD0lfVrSw2l/Hp6u839X0pOSHpD05l7WM0bSbEmfSj9fkLRC0u8k7ZGb9f3AlbnlNpf07fS7vEHSvBTbMEnvlXSNpAsktUq6JbV5paQNJH1A0t/S7/0ruTbXk/RZ4JKIWCBpu1r2lVlTRIQHD6UayK6N/hs4Nw0XAg+SPYM8P9/dwKg0vj5wYxrfGvgpEMCXgFZgP7JXjf4H2DTN92FgRq69w9Iy70/TvwBen6tvAzaqoe4jqZ2tc/XfBx5I41sCJ6V5rgDeBlyS4r4euCy33K3Arb3sr4uBi6psxyk9LNPttgNbAJ9P098F3gK8Avgt2antk4E3AuOBvwB39hLfr4CzK+JdBYzLlW1Usd2jyU6f75SmN0zL/AxoAXYhe8b6rcDhwGbAp1PMPwAOBsYCp6WynYFRwG/ITs3fBzwEHN7sz7sHD90NPoK3svp7RByVho8Ae/Pya/MTgDMlbRQRzwGnAkTEA8CdaZ7TImJBRFxN9jrNMWTJDeCLwFaSTpF0CvBasgSwVa79U1Lnvq75V9VQV+0U+Ytlkb2z+5Y0eVlEXB8Rh6W4ryVLUF1vUHuEHt7jnY7uDwPOyhVf0d38Od1ue0Q8TJY4Aa6IiN9ExKPA5WSvHb0kIu6IiCVkL4bZvof4RpOdes+/6OSXZJ0B8699PZDsS1mXjwPtkXW8JCKeJkvaZ0dEZ0TcTvYq4/si4uKIeIzsyyDA3yLi8ohYRtqXwPYR8UREvCUitoiI7SNiy4i4uIZ9ZdYU7kVvg0JE/E3SnyuKZwDfAQ6S9F1gVn6RtNzKXNkv0vyTJY0lSzCXRsQfulnt/yNLlg+k095fjuw1nL3V1aIr4T+RL4yIr0oaJ+kEsqPasWRvVevOu9PPf+baWKke7v6qcdufr1JW7Xr1s8CwHuLrBJ4CXpkre4ps+/+ZK9sP+FBu+r/Izri8KCJ+3FOMEdFZZbu7fifr9xCjWb/kI3gbNCJiTsX0eWTvqL8GOBH4i6TNe2ji0fRzJS8lpV0rZ+o6Ko+IXwDbAhcBHwXukvTa3urWhaT3kN0pcEVEnAT8vZdFRqafm/RhNb1ue72kLz1HA+/r6r9AdkT/zcjuikDSK4FlFV/GhpKdVaiMb1Q94zPrz5zgbVBJHdkOTePvjYi/RcSHgDeTnco+uGL+/NHvhPTzRrJk/yhwQj6pKbs/+r259h+JiGOBN5Cdgp/eWx0vHTW25NY9lF7+XiVtCFwKzE2n62vRdep7nyp13a2v122vs8XAX4ETU0e+2yLi+Fz9IcAPK5b5E7CDpGkV5R9vQHxm/ZITvJXRcKqc9pU0HLgA+GMqOjld4yUibgH+BtxbsdjOufHpZNe+r46Irg54mwO3SzpB0mfIenF39eT+lKSJqf37gNty7fdUd3/6+TFJr5F0HPA6YJykKZJaeOlvd3guviHABsB7JU2S9AGyDoJjJO3Stb4K3wfagS9JepukoeksAMCOkiZVLlDjtndd/st/QRpS8RNA8LIvUpWuIDsTcTewDFgp6b9zy7yF7Pp/3jnAcuBySZ9Lvfd/xpq/3/Xy8UnqNj56vsxh1j81u5efBw/1GoDXk11HD7Lrq1eQ9bi+mOwI70Hgjtz8K8l6RJ8FfA04Nld3Smrna2Sd675H1ht/dMU6jyF78tvTwK+Bybm6+8h63X8H+HJqU73VpfpvpDb/QnYq/AKynvbvA3YE5qX4bgL+O7fcZ4EOsi8JBwNHAU8CJ/aw33ZI7XQCC8iuy/8H+Bbw2h6Wq7rtwGTgJ7zUy/91wG5kSTjSNk8C9iXrzBhp+8d0s55vAY+RXXt/Ps3fte07Al/pZrkd0zwryb4cvC+VbwB8kuw6/sPAe8h6+Z+a2v0L8A7gVcCcVHYjsHOzP+MePPRl6PpnY2Y5qWf4yRHhZ403kaQRwPnARyJdY09H2psAXwVmR8SfmhiiWb/lU/Rm1p+dBjwUuQ50EfFCRDxOdmmhYY+lNRvofJucWXXrQfYEvIhY1dvM1jATgL0l/YPsgTdLyR5KcxDZ/eodTYzNrF/zEbxZBUnv46X7w0+TtGUz4xnkPkp2Df44sg5y7WRPx7stIi5pZmBm/Z2vwZuZmZWQj+DNzMxKyAnezMyshJzgzczMSsgJ3szMrISc4M3MzErICd7MzKyEnODNzMxK6P8Hy93z3phr/T0AAAAASUVORK5CYII=;" vertex="1" parent="1">
          <mxGeometry x="57.5" y="457.86" width="394.99" height="282.14" as="geometry" />
        </mxCell>
        <mxCell id="w7AhATVy-vMS33P31Dev-3" value="" style="shape=link;html=1;rounded=0;" edge="1" parent="1" target="677b7b8949515195-1">
          <mxGeometry width="100" relative="1" as="geometry">
            <mxPoint x="20" y="370" as="sourcePoint" />
            <mxPoint x="120" y="370" as="targetPoint" />
          </mxGeometry>
        </mxCell>
        <mxCell id="w7AhATVy-vMS33P31Dev-7" value="" style="line;strokeWidth=1;html=1;rounded=0;shadow=0;labelBackgroundColor=none;fillColor=none;fontFamily=Verdana;fontSize=14;fontColor=#000000;align=center;comic=1;strokeColor=#3333FF;" vertex="1" parent="1">
          <mxGeometry x="20" y="130" width="1030" height="30" as="geometry" />
        </mxCell>
        <mxCell id="w7AhATVy-vMS33P31Dev-24" value="INDICADORES DE QUALIDADE " style="swimlane;fontStyle=1;childLayout=stackLayout;horizontal=1;startSize=30;horizontalStack=0;resizeParent=1;resizeParentMax=0;resizeLast=0;collapsible=1;marginBottom=0;labelBackgroundColor=none;fontSize=15;fontColor=#3333FF;" vertex="1" parent="1">
          <mxGeometry x="320" y="730" width="324" height="120" as="geometry">
            <mxRectangle x="231" y="689.29" width="260" height="30" as="alternateBounds" />
          </mxGeometry>
        </mxCell>
        <mxCell id="w7AhATVy-vMS33P31Dev-25" value="1ª CSR : XX" style="text;strokeColor=none;fillColor=none;align=left;verticalAlign=middle;spacingLeft=4;spacingRight=4;overflow=hidden;points=[[0,0.5],[1,0.5]];portConstraint=eastwest;rotatable=0;labelBackgroundColor=none;fontSize=15;fontColor=#3333FF;" vertex="1" parent="w7AhATVy-vMS33P31Dev-24">
          <mxGeometry y="30" width="324" height="30" as="geometry" />
        </mxCell>
        <mxCell id="w7AhATVy-vMS33P31Dev-26" value="2ª CSR : XX" style="text;strokeColor=none;fillColor=none;align=left;verticalAlign=middle;spacingLeft=4;spacingRight=4;overflow=hidden;points=[[0,0.5],[1,0.5]];portConstraint=eastwest;rotatable=0;labelBackgroundColor=none;fontSize=15;fontColor=#3333FF;" vertex="1" parent="w7AhATVy-vMS33P31Dev-24">
          <mxGeometry y="60" width="324" height="30" as="geometry" />
        </mxCell>
        <mxCell id="w7AhATVy-vMS33P31Dev-27" value="COEFICIENTE DE HOMOGENEIDADE: XX" style="text;strokeColor=none;fillColor=none;align=left;verticalAlign=middle;spacingLeft=4;spacingRight=4;overflow=hidden;points=[[0,0.5],[1,0.5]];portConstraint=eastwest;rotatable=0;labelBackgroundColor=none;fontSize=15;fontColor=#3333FF;" vertex="1" parent="w7AhATVy-vMS33P31Dev-24">
          <mxGeometry y="90" width="324" height="30" as="geometry" />
        </mxCell>
        <mxCell id="w7AhATVy-vMS33P31Dev-28" value="FERRAMENTA COMPUTACIONAL PARA GERAÇÃO DE ESPECTRO DE RAIOS X&amp;nbsp;&amp;nbsp;" style="text;strokeColor=none;fillColor=none;html=1;fontSize=24;fontStyle=1;verticalAlign=middle;align=center;labelBackgroundColor=none;fontColor=#3333FF;" vertex="1" parent="1">
          <mxGeometry x="486" y="65" width="100" height="40" as="geometry" />
        </mxCell>
        <mxCell id="w7AhATVy-vMS33P31Dev-32" value="&lt;font color=&quot;#3333ff&quot;&gt;VALORES MÍNIMOS PARA CSR SEGUNDO A IN nº 90&lt;/font&gt;" style="whiteSpace=wrap;html=1;rounded=0;shadow=0;labelBackgroundColor=none;strokeWidth=1;fillColor=none;fontFamily=Verdana;fontSize=12;align=center;comic=1;strokeColor=#3333FF;" vertex="1" parent="1">
          <mxGeometry x="520" y="148.5" width="470" height="30" as="geometry" />
        </mxCell>
        <mxCell id="w7AhATVy-vMS33P31Dev-34" value="" style="shape=image;verticalLabelPosition=bottom;labelBackgroundColor=default;verticalAlign=top;aspect=fixed;imageAspect=0;image=data:image/png,iVBORw0KGgoAAAANSUhEUgAAAXAAAAFHCAYAAAC4ZhcqAAAAAXNSR0IArs4c6QAAAARnQU1BAACxjwv8YQUAAAAJcEhZcwAADsMAAA7DAcdvqGQAAClKSURBVHhe7d3Lr+TWndjxq/wR7ocuvAkCZALo0R09Ai/Gi7EWo0UkLTKbHsQZLW7kyEkwFmZaggBDFiD0WIJsdALJ7bvQSIP0YjzAtHoW1kK96QAyoseoZTWQBHlsBq1++J/Q9JeXv9vnUmSRrCKLdYrfD0DUgywWeUj+eOqQdX73fX3XjiQpO/+kfJQkZcYALkmZMoBLUqYM4JKUKQO4JGXKAC5JmTKAS1KmDOCSlCkDuCRlygAuSZkygEtSpgzgkpQpA7gkZcoALkmZMoBLUqYM4JKUKQO4JGXKAC5JmTKAS1KmDOCSlCkDuCRlygAuSZkygEtSpu77+q7y+aj29/fLZ5I0vL29vfLZfKw1gE9ZwFN/v6TxzPX4tglFkjJlAJekTBnAJSlTBnBJypQBXJIyNWkAP/Yv/lUx1PmX33u6GPdXv7pUvnNPfO5//9//X76jKfzFf/nl4baIocmi6f7jS69+Y3wMddu/in2FeUwhLYMr//035bv3xLrFerCsz/y7/1A8l1a1sTXwf/Ov/7B4vPTrD4vHEAfCdx47vfPP/9k/LZ5r/QhCP7/wl+WrewhW1RMrQauq7r06f/bKT2sDYyCA3rh5e+epP/xe+c56/c3ffVA+29m5/MGV8lkz9uvffPL5wnWSutqYAM5BHzUZnj9dHpDs7GlAiID+zJNPFI9RA6rWBq2dj4eTKNsFd/7n/zgcdk8eL9576bU3i0cQqAiwnHDT6Xivuo3eeOXskfn96XN/Urz/2RfXi8c6EUC/9/vfKR45sVT3h6jxxrjq/hHvpZ/heTqu7oQT6/ZHTz1ZvP7V5V8Xj4vEft0l2EttNiaAf/epM8XjxQs/K2rWDBz0+OTal8UjB10Ejn/7R88Uj6FaG4z5aXhxEmVbpX764z8vgvOld98u37mH7Ra/nv7+yvtFgF71FxT7Q5wcqtL9ge8mAMe+gzM/eKF8dk/6GZ6nQZvvqTbTRBB+9NQDh0G8rcmHdaaMugR7qc1GBPCoIVEDi5oUopYdAeP98oCJgyXFQRE1t6gJth1MWs4/3LhZPO6eOFY8BrYdwTnFexFgaQ6JGm3dL6R0PEME1Ki1VsWJ/fHTDxWPKfaRtBZPAOb11csXD19XxS+AWN5v754sXvM+btw6+pkIwlQmogmn2uRXh/nCZhStaiMCeNSMTh4/GhCils14DviPP/9t8bquvfM/732/fHbv+c3bvyseNS1q5NWTLr+Q6oJ4KppdmmrqsX1PHv9W8ZiKfSTGxfcvqvXH/rZ74qACEBWI6n6JqBzEfDlRUXGIfXWRmP/N23eKR2lZG3UR8+yrr5fP7okD5K13LhYHBwdJWkvX+kUN8satowGIwEXNuc5/PffjIhgzhPhFFaIGHNs8bfKo81Xl+9cpatrUwuMXQ9Tq45eBNLaNCOBx0HIAVJs9oiYVP1fj7pSq8/vvlc/uHVx1NTOtLmqmZ577UfEYol05msQQFwbT9uNo1mhCsI9mjHReVfdXmnDWhRPVopNLl2YUaQgbUwN//tmDi45pIEb8NA0v/qd/Xz47iuAfNaE4uKoXOjUMyjUCbJQ5Q9RAn3/2j4tHRPt1WlONtu1HHn6geKxz7uWDkwHbsulaRpyg191Ull6LiV8VMYBlXtSMEm3pj516sHiUlrUxAZy2SWpmdbXwqHXHT+s61VpdXKzSOGjXrqtJE8TSJi62a9224A6WRU1hfC4uHnJxs04EwLg2si5x62LdtZjYR6vNQ6m4CLyoPV7qhP7A1+GXv/xl+WxY585f+Ppbv/d48bjIWN+vaZ3+g6eK7Z+L//V//l+xvD988SflOxrCXI/vjbqIKfUVdxzlckte1Mzrau9SX2bkkZQ9M/JIkrJiAJekTJmVXtJWmGUTKQF8Haa+SuxdKMuZW7m5n+TJu1AkSVkxgEtSpgzgkpQpA7gkZcoALqlR9CYZKea0WQzgUkd0stYUzHgvur6NftHbEjsskubvnArLT8+RdDzG41DdFaRlpdUYwKWO6OebbnSjO9yxRH/jBM7oonYKJOyI3iWHXA66hK7Lm6r+DOBSBxFUo5/ypj7KmS4SavMY00VTRDrUST9PwgwSYTAPaqwkWeZzTfPks6m0Fh+/HqIWzXzTJBt8Nh2Pz764fvh5hjQHanw+lomhWiaMTz8fqjXw6nRpMmktZgCXOiClH31904c3j01Zd9L+z3kk+QWBjVo7tdgYkAbQkH6eGjjZicDJg54X+SzzJAjSL3nMj2nTPKPMm37HY3w1UUqbtvmDJB0//fGfF+Ppuz3tt53v/82nnx9+njKrazbhe9LpWHdyAvC+2hnApQ4IVtEFLI9tWXdSBFyCUyoyGvWRZpgiuBI8A80czDO6q43gGtLnXbTNH7yOpByRXCPKpPr9nIji10uK5pS/v/J++ergBJZm4NJiBnCpBTXoNJk2j7xelHWnDs0T0UzACaCPNKgRJKml0sQS84t5kug5gmja5BHL3kXb/ENk10/Rbl73/ViUgSiaeBgiNZ/aGcClFjSXEFTSYMbrrhczI3ATEOPC5DI18CqaG6LpIYZochnC2PNHBG6aX+L7rIF3ZwCXFqA2Sc2zGsx4jeqFuzqX79bUaQPmc31qwk2iJvvJtS+Lx6pohkjHR624i7b5t4nPUxtvw8mR3KqUzaIauuoZwDdc1FC6BIptwMUr1neoe45XxcVLasvV4MJr3m+6mFkVmehRXLjr2YRSRdCj1poGZsotLv6RCDy9cPnSa2+Wzw7cf+JY0U4dWM9U2/zbcMJ6653/Vr66tx/XSZtluPhpE0p3sw3g7Ex1dwGEPjvrECJwMaTBi4OQn93pBaw21XkMKb01rW5o+l7Wr+nWsTRI0CxB7bZrTZXPVucxJILcM08+Ub46ivcJxNV1juAetxHS7MAdIbG+BCwCJHdfLIuLf8yD74j5cicI78d4gniMq7ZXM55ljPGPnnqgHHOgbf5tWGe+Mz7LyYBadhX3g1PGMR0nFoL/x5//tpxCC5Xdyo5u0/oDJzM4Gc3f++u/Ld+55+nv/6AY15bpfkhN30cW8ykt2m6UHcu9DMq/WvZTryu2tV/pyIb/4dWPyne2i/2Bz9B3Hj298+m16+WrA1GT+/buyeIxlf5pIa1NRi0wrUXX/RkhxjGktX+mjYti8bn4yZnWgNJaZrUmnOJ1WitMp60uV7rMDEPUZPluvie+l+9Ia+C8B2pl8R7j03WNaQLzi/fTdYiyT5c7nTbmHxaVhZSbWQdwfjZWf8Zya9jjpx8qX93DwU7Aj4tY/CSuNsHwsy/Gg6AUCBj8JI3x/GyM8dwHy0UnxvOcAJhelWdgfLRjxudiXNOfJBDvx7ScmGK5mU/6B5P4yTwETkiUI/Ot/uzmPfCTnJ/QnKwW/dGFx7Ts03WoqttOUV51ZdFUblIOZn8Rk3bC9AIhf2B4uvzDRiCgEpDSW6j4kwJBOK35Pf/sH5fPDmr3cXGG+ROA00BG8Gq6DY32XwJMeuGM+YX0og9Yrrq+JVg22mjTP1Aw3fPPHgRp1pXlCCwfy5meeFZRLccmbX90SS8AgnWou52tbjtxQmQ56sqC53Vt2NuIfYkyHuIuGG2O2QfwRx5+4PBOAg5kamXVOw5u3r5TBLZUHAjprVLVPy5E4Ll5+3ffaJKp/nOtDuPi5356xwABmMAT45rmEctWXZ94TbA7efzoMqcnnlVVv7cN5R/rxPoFTozpha4mddsJLEddWfCc6fmclKPZB3ACMT+zCYJ03lPXfLJuEbhpzqCGTM2JZpJA4OE9BgIQ0+XcnhuBu+mPLvGLhAFMa9OHZAAv0IxC23dd8wmopVJbTcXP7mqtu87J498qThKp+JNEXS2VZSGAEbDabh+kiYC2cpavWhOPZWuqodfVPrkmwK1c69Tnjy5MQ5BPa+ihbjuFurLged2vEI0rKihR6eBxDs1YYzCA30UzCu3Rdc0nIKgQ7NILZ2dffb0IOnXTVxGECRRp2zIXKblo2CQN+LShp00o1D7TGmjTyYDXnAjSP2mwDHHgcOJiOQLjWM6u9/oOadEfXVjetOz5pVTXVBLbKS1nPkdZRVmkf2jhOe+1nTQCQafpZLjtWPf0WtEq2B/Z97mOxHzRdRuwbZsuYM+RAfyuOPAXNZ9Q06V2yg7HQFtx3YW0JtQcOUnE59mBmwIl73MyiWlpo6cpJYIaF/EI8DE+7lipw7QEx5iWXxmsC/geliPGxZ0g60Y5putT/aMLy5u2gbOcsQ5VvM86xrSse1zgjccYh3ivDUGDbdDlhK3F2N7sexx37G9N27IOn2ObDnUyyV55P/joNu2PPOpmbuVWt778+SX9w1K85g9f/Dkm/oDFH5N4HUP1TzOLxvM8HZf+ySn+MPXDF39yOJ7vTOfHsqT6zo/nKeafjqvOI9Y9hur3p8vGkK5r+r0M1T+DLVp2ML76mbke3wZwLWQAPwg46b9kI8Ck70XACtV/Psb4+LdpOn3ML6atvo5pqyeKNGjymvcRn0//2ZqOr86vuqwRvEM1gPM6/e74vur869aVeafBN747lqW67tXXgXmk7831+LYJRWpBUw4XoqvSC97RzBVoauEaCRdoEb3uRRNM3PtOm3pcxI12YB55nXYGhWhyi1tQj/zv4LHTxe2qYH7pd4HX1Y63Yn5Ml17Qrv4/IP43EGgCSZuequ3Xi9aV70ybTOK7Q9eyoAkzynbODODSAnGnSgTNVBoguT7BtYhoX2eg3T4uztLGX3cSYB5MU73zh38Jpxey6y7aNuGE8/PkegsDr9vmFyeA6p051SAbuKAY808tWtdAG3Z8lu8LXcoCTBNlO2cGcGkgcQ97OnS9SDq0+P9AOvS5WLhIBG5OCjHvriJwp11F9Dk5papBfY4M4NIACELc3tiEu4qihltFt6vVf7/SyVr137td8blqJ2191K1LWkuOJpamwL1oXaN5hc+mNfLQpyyWLZ9tYgCXFojmg7bsNGSMp0aa/iElvX+dvsMZH+LPLExPkmSaW+KzPPI6bePuI7oeSG+1q/53YJFYl1B333UaoKvzXbSuSAM0805PDl3LgnnU5eScGwO41IILZm01Wi7UUStNEwHzR6n4r0CMj3F0f0CTCxfpGHgen40uBaoXB7uK+aVt8gS7rs05LCu15Phs1cVfvFkE6BhPwOYiapTRonVlGQjIMa6awKFrWdDOT7CfvfJulNF5G2GevI3w4Fa36n3HavfDF39y5FbGoXD7oPeBH7AGLrWgGYVauP/+64fbD8/84IXD5pChcEshzTyyCUXqhKYQmiRoz1U72rZpOqF9e9mmoDrRzw3NNDKAS5013Tmhb+KER3k13amyLP4INNWtmZvIAC5JmTKAS1Km7uNKZvl8VPv7++UzSRre3t5e+WxGintR1sDbCPPkbYTKgbcRSpKyYgCXpEwZwCUpUwZwScqUAVySMjVpAKePhOiVLIZq15V0Vdk0bih0+9nWX0OXZZ2jLmWHdDsy5Krr+qbr6n6isUwawOk0Pjp3jyG63wQHPd1gxji6kIy+EIbCAZn2R9ykbVnnqGvZsR3JnhLlRjny2dz0WV+6SI31HWO/lTBpAKdT9kcefqB8dRSdBpFnME2oSg9kZAMZQqSFope5LhYt69z0KTtqq2xH+pAO1cS2m67vvsL6pn1V0y949HctDWnSAE7N5Oyrrx/+1KTmEm6UWTvSzoNILEsNaKge4frUohct6xx1LTsynZPRJvdOoPrsKyQ3SDOmU+l4/PRD5StpOJMFcIIwwZjaSfzURATGOPDHQi2wq7ZlnZs+ZUfqLXIXRi2WIbfmkz7ri+gtL9aXX4595yF1MVkAp0ZGIEx37HMvv1D8/Ny0PpdzWtZNRDkhTn40ReTYBt4VQZtUYbG+JPKd+y82jWPSJpRFTh4/1umCkTYfTQrpyY/rGkM2hW0Ssvbwy9GTvdZhsgAet+Wl0nbv3bs1GKQ7PZnBp2hPbVtWNfPCrzSeyQI4aZYIxuntVVwk5PYrEBipub302r27F87vv1e0Q69b27KqGWXHLYRpPkm2Kdt2G09+pPri10W6r2zz+mpakzahcCvZzy/85eHFHtpG0yv9XAzi4E/Hr+tiEG2W6UHYtqy6p67sOPlG2bFNtyktVnV9afdO9xWYBkyjKLuVHV1u/YF/ePWjr8+dv1C+mq9ltlvOZTe39d0W9geuI7iP9+nkzxjqbm5l576iqRjAG9A8YpvlcuZWdu4rmooBXJIyZQCXpEyZlV7SVjAr/YhyuwtFB+ZWbu4nefIuFElSVgzgkpQpA7gkZcoALkmZMoBLUqYmD+B0BBSd/kTHP6l0/JRZ6ZEu55wzjdPFb1oWbKM269iOY+m7vsuUj7SMSQM4O/aibOWM35Ss9CyLmcYPfPepMztvvHL2sCzYhouC8jq245j6rm/f6aVlTRbA27KVU4th/KZkpWdZzDR+sN3oG51+rwPbhaBcZ+ztOLa+69t3emkVkwXwtmzlm5aV3kzjB0jQECfZEImL66xjO46p7/r2nV5axYQBfHG28k3KSg8zjTcjecEzTz5Rvjpq7O04hUXrW6fv9FJXk7aB89Ma0Va4ydnKCdpmGv8myoVrA2mTwTbru75zKx+t16QBfFG28k3KSm+m8W9ivSM4LWqG2qTtuIqu6xv6Ti8tY7IA3patfJOy0usotgl3WnDXUFtw2obt2Gd90Xd6aVmTBfC2bOUMPN+ErPT8/KUWmd76NudM4xGculwD2KTtuKw+64u+00vLmrQJpS1b+SZlpafd20zjB7dfIi2LtExQLbspt+Oq+q5vl+mlwZTdyo4ut/7AzTR+YJntZlZ6rZv9gesIM40vz6z00noYwBtw8WmO7dtDmFvZua9oKgZwScqUAVySMmUAl6RM3ceVzPL5qPb398tnkjS8vb298tmMFPeirEFutxHqwNzKzf0kT95GKEnKigFckjJlAJekTBnAJSlTBnBJytRkAZxuZKu9tcVAYthAT2/x/pCZvemzOf3OPtl1yBqULuPcLFN2lFlMn/ZUmIO+68u+kU7PYFZ6jWGyAE4f25GeLAb6jSaDCX2FgwNl98Txw/Fk9h7q4KfP5jdeOXs4b7o77XKQEYi2IcPMKvqWHduRLmRjerpaTfuB33R91/ezL64X/YHH9AwmdtAYNqYJhcDMgRE7OrUeUpaRZi2QSJhs8KuihkRGmDRPIfPmBNGE5aMmRSCas75lV7cdOUl/eu16+WqzLbOvfHXrTmvGKWkIGxPAqZVxYIQbdw8CpL28PXbqwcOcmaughk8yiVRkyV/EmlT/smP7UW7pdvzV5V/vPHoqjwC3zL5CcD/76uuHzSd9muekPjYigFO7rdZybt6+U7y3LpxAnnnyifLVN5keq1lb2YVoB6epLN3WuVm0vlQuqGSQMi6aT2AQ1xg2IoDTLDJljkSCCj/rcw4qU+lTdtRkCWiPn36oCOY5alvf+MWRnvDPvfxC0Yy06i9HqWryAE4bIzWWakaTk8ePjX6xkAMqDkgvMvWzStmxrYdoClsn9xVtoskDOFfsaSqpZjTZPXGseEwP8k+ufVk77TKYb2QP94Dsp0/ZxS11OVt1feuu50hDmDyAc8W+7s4OdnbaSl967c3ynZ0ig/1QTS1xQNq23V+fsuMiICfd9LY7tinbNpeAtsz6pre7ckGTmrs0tMkD+I1bt3fuL2vbVZfefbu4tZAaDQOBfoiAGwcXF6Ni3jEELjqlB6EOLFN2tH1z50k6Hds2B8uubzo9+62/8jSKslvZ0eXWH/iHVz/6+tz5C+Wr+Vpmu+VcdnNb321hf+A64vIHV75xYVXdzK3s3Fc0FQN4A37yetFpOXMrO/cVTcUALkmZMoBLUqYM4JKUqfu4klk+H9X+/n75TJKGt7e3Vz6bkeJelDXI7TZCHZhbubmf5MnbCCVJWTGAS1KmDOCSlCkDuCRlygAuSZmaPICnvbvVZfqmp7dF45cVHfTH0CXlVaQEY5hzT4XLlF26HRlyssz6ptPPeV/RuCYN4BwI9JMcuQNJBpvu7IzfPXG8cfwq6OP5jVfOHs6bbmsXnSBYFroFjenpLvSvfnWpHDsvy5Qd08T09K2dU0q1vutL0E73648//61BXKOYNICTJ/CppBc3kjWws4NaD+Off/ZM8RpkrSd/5qrImkKn+2leQ+bNCaJO3bJwgH567Xr5aj76lh3TU3YXf3EvMQd9ulczvW+qvusbJ/W0/29yYnLCl4Y2aQAnKwtdcQaCMwlvUZeG6rFTDw6SS5GsKdUAcvP273a+vXuyfHUUy0BNKl0WEhQ8euqB8tV89C27m7fvFAEw1976+q4vWN86q+63UtWkATyyskRbITWbyLgTB/66UEN65sknylfNoh2ck0+XTOxzsKjsItjRhBDbOdeM9GHR+rJPUMlIm0zeeudi+Uwa1qQBnIOZdGrRVnjp1x92ukA0NJaDJpEuAZnaGMvKL4XcA9EQupQdTSiI7cy1hFzLrsv6Xr18sQjyTBv7uDSGyQI4bYXUsNMcl7QVcrDzU/Pk8WNFTWZMfE8ckH1zFpKBZYjmnFz1KTt+raTbmWsJuZVdn/WNJrcYHnl4fk1tWo9Ja+CL7Ja1lvQg/+Tal4O1pzLfyDbedkByIYuDVwf6lN02BK8+61vnsy+uZ30dQJtrsgBe11b40mtvFrU1dnQGnvNeOL//XnGnyhDigOyS5Z4LWRyA6a1j6bLOTd+y47a79JbL3Mquz/pGTZ2TfrymOYXrO9LQJq2B8/MybStEXNgEzzn4Yzxtp10OojZx0ki/O4ZAW3x6cqHtmztP0unSZZ2LZcuOk29MxzbNpez6ri8npYsXfrZz5rkfFdMQ/LmHvMv1Fam3slvZ0eXWH/iHVz/6+tz5C+Wr+Vpmu+VcdnNb321hf+A6gvvTuVCp/uZWdu4rmooBvAEXq+bYvj2EuZWd+4qmYgCXpEwZwCUpUwZwScrUfVzJLJ+Pan9/v3wmScPb29srn81IcS/KGuR2G6EOzK3c3E/y5G2EkqSsGMAlKVMGcEnKlAFckjJlAJekTE0ewNPe3dIe7AI9vcX4RZnA+4puP2NoywQUfYKnw5DLk5tILcdQt92qxtqO69JnffvuW9KyJg3g7NxkOInMJWSkTw8OdvzdE8cPx5MJvEuw6CK6+Yx508XposBCp/z0CR3TMyzTuf82YLvQtW+UA12tpv19V425Hdeh7/r23bekZU0WwOMASIMgKdU4OEAthvRqpN8KdIpP5vpVUZsmQUPaRzPzJrA0+erWHVNj3VW3XTgJf3rtevnqqDG34zr0Xd9l9i1pWZPWwNnR63DQ3LgbMJH28vbYqQcHyaVIlhiSDKQie3oTDsCzr74++5/FbA9qlel2IdHFo6fqT25jbsd16Lu+y+xb0rImC+B1KdXeeudi+Yyd/k5jgB8DNf9nnnyifHVUcUK5u6ykc4ufxZhrEA/RLkx6tKaMM+vejmPqsr51Fu1b0iomrYFfvXyx2LmjVnt/mch43fhufhY3HZRRC0vTuaUZ9OeKmibl8vjph4rgtu2WWd+2fUtaxaQBPAJjDGkb88njx4pa75gIvnGAzfWC5BDIRtPUJLKO7bhui9Y3uG9pHSYN4FXc6cHPbQL7blkbTw+ST659eTh+Vcw3so23HWBxC2Gqrm13DurKYpGxt+PY+q4v+uxb0iomC+BRQ+EAidc0p3DFHhzctDW+9NqbxWuQ2Zx26CHEAdYlyz0Xpgg4aXs9FzSpXc1NlEV6WxzbiG1VF5DH3o5j67u+6LNvSSspeyUcXV13j2Tz/tbvPX44vPfXf1uOuef0Hzx1OP6HL/6kfLe/9PvJIJ5+bzqEp7//g29kGk+nW2VZctLUTWdaFpRVqq7shtqOY1t1fbvsWxreXLuTtT/wBpxcqkFojpbZbjmX3dzWd1vMNYBvVBv4Jrn8wZXiYpX6m1vZua9oKgbwBlx8yuEi2yaaW9m5r2gqBnBJypQBXJIyZVZ6SVvBrPQjyu0uFB2YW7m5n+TJu1AkSVkxgEtSpgzgkpQpA7gkZcoALkmZ2pgATgf50TNhiqw39FrIUJcYtm18k+gNMYZF2XXI35lOmw51yzwHkZ2GoS1BcZ+y3lR91hfpfskgjWEjAjgHR12n/xwEi7KZt41fpE/mcLKpxHQx0J0o3cnS3ejcUO5zytLed32ZnnWM6elatmsGH6mPSQM4wZbaCQdHFbW2RdnM28YvQq2ZPp7TNFd9Moez3Bygc+ysv67cOZFta5b2ZdaX6S/+4l7/5/QLXk10LA1h8ho4NZS6QNiWzXyVbOerZg6nBhaJJ+aG8mabpeW+zVna+65vJHFOp5fGMmkAX5SxpC2b+dDZzgnKXTKHU/uu1ijnKtqFaU7qUx5dy3rTdFnfODnFr0sGm080lo25iDklDjJ+FncJQjTR5JIObGxzy9LedX1pQgHTMtBEaBDXGDY2gLdlMx8i2zlNLRFQurRn077Jd9p5/1Fzy9Letr7U0NNfl7Sft5WPtIyNDeBt2cxXzXbO5/pmDk+z5s8VJzECcR/LlPWm6Lu+jzxc3zYujWFjAzhBkppMUzbztvFtlskc/tWtO7V3zMzJ3LK0911fpucOpfQ2w7bykZa10W3gl959uzgYqAExEDzTINA2vkncK87FtPhsDIF7eWO6cOPW7Z37y5r/nNEWzJ0YaZmxLUJadl3KetP1WV8wPZWJmJ59NJ1eGkzZrezocusP3EzjB5bZbmal17rZH7iOMNP48sxKL62HAbwBF9tss1zO3MrOfUVTMYBLUqYM4JKUKQO4JGXqPq5kls9Htb+/Xz6TpOHt7e2Vz2akuBdlDXK7jVAH5lZu7id58jZCSVJWDOCSlCkDuCRlygAuSZkygEtSpjYmgJOxhL6XmzSNpye46PWtb6Zz5hmfrfY8WGeV79o2fcou+tROh9zKr+++kq5rl+mlZWxEAOfgWJRdp2k8AXX3xPHD1FVkOu96sPBZup+Nz9LdadqHc9Uq37Vt+pYdiTDoDzymZ8gpsUPf9SVok3kopv/4898axDWKSQM4OzU7OwdHnUXjyfJC7kHSVQUyxZOzsk3dZzngPr12vXx11CrftW36lh1IhJFrppq+6xuBPT1BnXv5hSLoS0ObvAbeVhtrGn/jblBA2gvcY6ce7JR7kM8w3/SzdNj/6Kn6ILPKd22bvmUHfq2cffX1wyYFarS5WGZ9yeBTZ277isY3aQBvy56zaPzN23caD5Q+om2TlFdNmdKH+q5t06XsCFqc6Eh1RyBkQE5BPHRZX95nfdMmk7feuVg+k4a1MRcxp0L6K4LK46cfKg5Qddel7KIGm56MaVKgWSK3GmnXfeXq5YtHUsiZhk9jyTaAnzx+rPbC5rLIqNLUJDL0d22bRWW3jdrWN05aMZipXmPJNoDvlrWa9CD65NqXRVNH2l5ZJ25r62qV79o2fcuubvq6awqbqu/61uEunDnuKxpftgGcg4G2yJdee7N8Z6fIBE5ba5vv/f53igMqvReZ+TC/uoNsle/aNn3LLqZP24S5oMmdHDnou76c5An4BP54TXMKdy1JQ8u6DfzSu2/v/MONm8UBw8Dthm0XRgPtmdxNEJ8F8wtcZEuDzirftW36lh3Tp23ClF1O94H3WV+C+sULP9s589yPimm/+9SZnTdeOdt40VNaSdmt7Ohy6w/8w6sffX3u/IXy1Xwts91yLru5re+2sD9wHXH5gyvFxSr1N7eyc1/RVAzgDfiJX9fGqXZzKzv3FU3FAC5JmTKAS1KmDOCSlKn7uJJZPh/V/v5++UyShre3t1c+m5HiXpQ1yO02Qh2YW7m5n+TJ2wglSVkxgEtSpgzgkpQpA7gkZcoALkmZ2pgAToaT6IIzRNecMdSl4eK9GJ92+dlFpMhiSHvPq9NlWeakT9khLbsu028qkhazDm36lo+0jI0I4OzsdRlvoivOyGxCd65pkCaI7p44fjie5LldDxY+S7em8Vm6O42M4nXalmVO+pYdQYz+v2P6jz//bbZB7c9e+Wn5rFnf8pGWNWkA5yDm4GZnr6I2Tkf6aT/KdIpPkAY1YvIqPv/smeI1GP83f/dB+apZ3WcJMJ9eu16+OqptWeakb9lF4Er7/yYnJkEtN5ywSeSwSN/ykVYxeQ2cGkpd5/5kQqEj/dTN27/b+fbuyeJ5XVqux0492Ck3I5/he9PP0mH/o6fqcxe2Lcuc9C07cPKr07adNgkn8Ru3bu888+QT5Tv1likfaVmTBvC+GW2otcUBdPP2ncbA0Ee0VVKz6pM1JV2WuepSdrzPSTVtMnnrnYvls3yQBo5fDn0su29JXW3MRcw20Y469IFAzZoa0+OnHyoOuC7GWpbcdC27q5cvFic8yo3h/jJJdC44+ZD/NK1Vd7HMviX1sfEBnJ/ZETDTppaTx4/VXvhcFhlV2ppfmpZl7trKLpoVYnjk4XyaE1gnrquskv+0y74lLWOjAzg7PHd//Olzf/KNgLlb1uLSg+KTa18WzSptNSXaMwnEfSxaljlZpuyqPvvieqfttAne/+BKEXxZZ4a4C4XnlEXVEOUjdbXRATwCZl3th4OftsWXXnuzfGdn5/z+e8VP3TZclCSApLcBMh/m1xRUFi3LnPQtO058abDjNc0p3MWTA7Z3+uuBW0nBc8qiapl9S1rWxgbwuOiVtp3GEC69+3ZxP3a8z+2IXQMs7ZPcHZDOk/kF7uWNZeiyLHPSp+wIWhcv/GznzHM/KqaN++m36fpBur5oKx9pMGW3sqPLrT/wD69+9PW58xfKV/O1zHbLuezmtr7bwv7AdcTlD64UF5/U39zKzn1FUzGAN+BCpW2Wy5lb2bmvaCoGcEnKlAFckjJlAJekTN3Hlczy+aj29/fLZ5I0vL29vfLZjBT3oqxBbrcR6sDcys39JE/eRihJyooBXJIyZQCXpEwZwCUpUwZwScrUxgRwMpbU9a8caakY0h7fAj3Bxfi+WeLb5p2Kfp7Toe/3bSOSFlMWXTVt51y0rW+MrxtyXm9tpo0I4BzUddl1CM50ERt9MdOda2Q5B+N3Txw/HE+W+LZAHNrmXUUSAvoDj+kZ5pzYIUSCgy6atnNO2taXbnLTfYSBvsDJ4lTXf7i0ikkDOMGWmgmBtIqO/3/zyec7zz97pnxnpzgIPr12vXheN54kAaS/atM27zpf3bqTVSqwdeAXCMGpzaLtnJOu65ti3emz3pO9xjB5DbypJkvvboxLe3mjk/xHTx0E0Rt3AyrS8Y+derBT7sG2edehdk9m8vg5TA1+zmgOuHHrdufM/E3bORd91zfklH1I+Zk0gHfNnhNt1dR+IpPLzdt3itRVq6qbdxUnBE4MpGsjEDFgzkGck9m5l18oXy22DWno+qxvoPbNPrpN2Ye0WTbmIuYipKgiaD5++qEi4A6py7yjxp4GIg5mmmHaavvbiMDEySz9BbPNll1fmvO65GiVlpVFAA9kPYkmkpPHjw16QSydt5pRPgSmbahVd7Hs+hZNLnf3JzP1aEwbG8A5AGjaaLJ74ljxmAbcT659Wfxkbasptc27qm76ujb4OXj/gytFYKI8GOKuDJ5TTttm2fXlrqUu+6K0io0N4NxyxQGQ3mv90mtvFm3VHBQMPOe9cH7/vU4/WdvmXRXT81M60CbKnStzQ000rgMwkGEePN/G2+SWXV/uWsr9rhttvo1uQqF9mrtDovaDS+++XTyC59yiFeM5YLr+1G2bNxco04DN9NxRkH6Xt4bVq5bdtqtbX+5Yub/8lSiNpuxWdnS59Qf+4dWPvj53/kL5ar6W2W45l93c1ndb2B+4jrj8wRUvQC1pbmXnvqKpGMAb0DziBajlzK3s3Fc0FQO4JGXKAC5JmTIrvaStMMes9GsL4JKkYdmEIkmZMoBLUqYM4JKUKQO4JGXKAC5JmTKAS1KmDOCSlCkDuCRlygAuSZkygEtSpgzgkpQpA7gkZcoALkmZMoBLUqYM4JKUKQO4JGXKAC5JmTKAS1KmDOCSlCkDuCRlygAuSZkygEtSpgzgkpQpA7gkZcoALkmZMoBLUqYM4JKUKQO4JGXKAC5JmTKAS1KmDOCSlCkDuCRlygAuSZkygEtSpgzgkpSlnZ1/BGWiSETDW7/bAAAAAElFTkSuQmCC;" vertex="1" parent="1">
          <mxGeometry x="620" y="193.2" width="289" height="256.8" as="geometry" />
        </mxCell>
      </root>
    </mxGraphModel>
  </diagram>
</mxfile>
